<svg width="21" height="21" viewBox="0 0 21 21" fill="none" xmlns="http://www.w3.org/2000/svg">
<path d="M19.9491 6.04807L18.1483 7.84893C17.9647 8.03253 17.6678 8.03253 17.4842 7.84893L13.1481 3.51282C12.9645 3.32921 12.9645 3.03233 13.1481 2.84873L14.9489 1.04787C15.6794 0.317376 16.867 0.317376 17.6014 1.04787L19.9491 3.39562C20.6835 4.12612 20.6835 5.31367 19.9491 6.04807ZM11.6011 4.39566L1.34292 14.6539L0.514761 19.4002C0.401475 20.0408 0.960091 20.5955 1.60074 20.4861L6.34702 19.6541L16.6052 9.39586C16.7888 9.21226 16.7888 8.91537 16.6052 8.73177L12.2691 4.39566C12.0816 4.21206 11.7847 4.21206 11.6011 4.39566ZM5.34698 13.7749C5.13213 13.5601 5.13213 13.2163 5.34698 13.0015L11.3628 6.98561C11.5777 6.77076 11.9215 6.77076 12.1363 6.98561C12.3512 7.20046 12.3512 7.54423 12.1363 7.75908L6.12045 13.7749C5.9056 13.9898 5.56184 13.9898 5.34698 13.7749ZM3.93677 17.0602H5.81185V18.4783L3.29222 18.9197L2.07732 17.7048L2.51875 15.1852H3.93677V17.0602Z" fill="white"/>
</svg>
