<svg width="70" height="70" viewBox="0 0 70 70" fill="none" xmlns="http://www.w3.org/2000/svg">
<g clip-path="url(#clip0_147_218)">
<g filter="url(#filter0_d_147_218)">
<path fill-rule="evenodd" clip-rule="evenodd" d="M40.1064 14.0103C40.0645 14.0167 39.9342 14.0393 39.8167 14.0606C39.6993 14.0818 36.7919 14.7843 33.3559 15.6217C29.9199 16.459 25.2522 17.5957 22.9833 18.1476C18.2932 19.2885 18.2156 19.3084 17.842 19.4649C16.5041 20.0255 15.5032 21.1708 15.1413 22.5555C15.0177 23.0281 14.9993 23.1835 15 23.7429C15.0006 24.1402 15.0115 24.3173 15.0464 24.4918C15.0715 24.6174 15.5244 26.4852 16.0528 28.6424C16.5812 30.7996 17.2495 33.5299 17.538 34.7098C17.8265 35.8896 18.1073 36.9903 18.162 37.1558C18.533 38.2783 19.363 39.23 20.4447 39.7733C20.5913 39.847 20.7358 39.9149 20.7657 39.9242C20.7929 39.9326 20.8205 39.9125 20.8207 39.884L20.8329 38.2203C20.8462 36.4058 20.8563 36.2256 20.9796 35.5983C21.2154 34.3981 21.7333 33.2751 22.5016 32.2981C22.7682 31.959 23.3995 31.327 23.7449 31.0534C24.7036 30.294 25.8291 29.7695 27.007 29.5331C27.7606 29.3819 26.8826 29.3943 37.8737 29.3795L45.7342 29.3689C46.5534 29.3678 46.963 29.3672 47.2283 29.1696C47.3708 29.0634 47.4824 28.9212 47.5517 28.7576C47.6807 28.453 47.584 28.0549 47.3905 27.2589C47.1088 26.1 46.46 23.4268 45.9486 21.3185C45.4373 19.2101 44.9782 17.3538 44.9284 17.1932C44.8141 16.8246 44.5359 16.262 44.3139 15.9503C43.9995 15.509 43.5148 15.0434 43.0639 14.7496C42.5464 14.4124 42.0215 14.2014 41.3685 14.0679C41.1282 14.0188 40.2994 13.9809 40.1064 14.0103ZM42.3688 21.2042C43.274 24.9976 43.4751 25.8534 43.464 25.8645C43.4451 25.8834 38.3071 27.1181 38.2955 27.1066C38.2815 27.0926 36.9933 21.935 37.002 21.9278C37.0263 21.9076 42.1468 20.6494 42.1879 20.6535C42.2322 20.6578 42.2549 20.727 42.3688 21.2042ZM28.1875 32.4678C27.7047 32.5041 27.1096 32.6543 26.6712 32.8506C25.2721 33.4769 24.3006 34.696 23.9939 36.2101L23.9751 36.303C23.9552 36.4012 23.9453 36.4503 23.9403 36.5C23.9353 36.5498 23.9353 36.5998 23.9353 36.7V43.2269V49.7538C23.9353 49.8539 23.9353 49.904 23.9403 49.9538C23.9453 50.0035 23.9552 50.0526 23.9751 50.1508L23.9939 50.2437C24.1938 51.2306 24.6878 52.117 25.4026 52.7711C26.0634 53.3759 26.8223 53.7529 27.7433 53.9338L27.8324 53.9513C27.9274 53.9699 27.9749 53.9793 28.023 53.984C28.071 53.9887 28.1194 53.9887 28.2162 53.9888L39.0783 53.9975C47.0267 54.0038 50.2232 53.9984 50.4513 53.9782C51.2706 53.9056 52.0741 53.6131 52.7361 53.1464C53.0492 52.9258 53.6132 52.3617 53.8339 52.0486C54.2899 51.4018 54.5863 50.6 54.6638 49.8039C54.7014 49.4178 54.7014 37.0359 54.6638 36.6499C54.5863 35.8537 54.2899 35.052 53.8339 34.4051C53.614 34.0932 53.0495 33.5284 52.7361 33.3068C52.086 32.8471 51.2837 32.5541 50.464 32.4768C50.2753 32.459 46.6367 32.4519 39.2433 32.4549C33.2254 32.4573 28.2503 32.4631 28.1875 32.4678ZM50.5894 34.9709C50.6723 34.9958 50.8069 35.0432 50.8884 35.0761C51.3963 35.2813 51.8599 35.7449 52.0651 36.2528C52.2095 36.6103 52.2121 36.6332 52.2222 37.6609C52.2274 38.1887 51.8011 38.6193 51.2733 38.6193H39.2935H27.2884C26.7748 38.6193 26.3601 38.1999 26.3658 37.6863C26.3755 36.824 26.3805 36.738 26.4318 36.5503C26.6184 35.8687 27.0998 35.3207 27.735 35.0671C28.1421 34.9045 27.1911 34.9164 39.3575 34.9212C49.9166 34.9254 50.4457 34.9277 50.5894 34.9709ZM52.2223 46.4954C52.2157 49.5288 52.2121 49.7615 52.1701 49.9019C52.0258 50.3842 51.8076 50.7272 51.4523 51.0304C51.2051 51.2414 50.9533 51.3734 50.5894 51.4829C50.4458 51.5261 49.9134 51.5285 39.3829 51.5351C29.3403 51.5414 28.3085 51.5384 28.124 51.5015C27.3032 51.3376 26.6645 50.7351 26.4302 49.9035C26.4102 49.8324 26.4002 49.7969 26.3928 49.7609C26.3845 49.7199 26.3787 49.6785 26.3756 49.6368C26.3728 49.6002 26.3727 49.5632 26.3725 49.4894L26.3656 46.47L26.3628 45.2442C26.3606 44.2994 26.3596 43.827 26.6526 43.5333C26.9456 43.2396 27.418 43.2396 28.3628 43.2396H39.2939H50.2251C51.1698 43.2396 51.6421 43.2396 51.9352 43.5333C52.2282 43.8269 52.2272 44.2993 52.2251 45.244L52.2223 46.4954Z" fill="url(#paint0_linear_147_218)"/>
</g>
</g>
<defs>
<filter id="filter0_d_147_218" x="0" y="4" width="69.6924" height="70" filterUnits="userSpaceOnUse" color-interpolation-filters="sRGB">
<feFlood flood-opacity="0" result="BackgroundImageFix"/>
<feColorMatrix in="SourceAlpha" type="matrix" values="0 0 0 0 0 0 0 0 0 0 0 0 0 0 0 0 0 0 127 0" result="hardAlpha"/>
<feOffset dy="5"/>
<feGaussianBlur stdDeviation="7.5"/>
<feComposite in2="hardAlpha" operator="out"/>
<feColorMatrix type="matrix" values="0 0 0 0 0.886275 0 0 0 0 0.643137 0 0 0 0 0.2 0 0 0 0.2 0"/>
<feBlend mode="normal" in2="BackgroundImageFix" result="effect1_dropShadow_147_218"/>
<feBlend mode="normal" in="SourceGraphic" in2="effect1_dropShadow_147_218" result="shape"/>
</filter>
<linearGradient id="paint0_linear_147_218" x1="30.2857" y1="4.71429" x2="56.7269" y2="13.9792" gradientUnits="userSpaceOnUse">
<stop stop-color="#FFCB6C"/>
<stop offset="1" stop-color="#E2A433"/>
</linearGradient>
<clipPath id="clip0_147_218">
<rect width="70" height="70" fill="white"/>
</clipPath>
</defs>
</svg>
