<svg width="70" height="70" viewBox="0 0 70 70" fill="none" xmlns="http://www.w3.org/2000/svg">
<g clip-path="url(#clip0_147_219)">
<g filter="url(#filter0_d_147_219)">
<path fill-rule="evenodd" clip-rule="evenodd" d="M33.4967 15.0233C33.3461 15.0408 32.8884 15.0932 32.4797 15.1399C28.1911 15.6293 24.0044 17.6823 20.8334 20.8511C17.6622 24.02 15.7313 27.9401 15.1012 32.4888C14.9663 33.4624 14.9663 36.5184 15.1012 37.492C15.7313 42.0408 17.6622 45.9609 20.8334 49.1298C25.9788 54.2715 33.4023 56.2111 40.4202 54.2476C47.6877 52.2143 53.2966 46.0938 54.654 38.7154C55.8698 32.1072 53.8468 25.5616 49.1328 20.8511C46.0176 17.738 42.2558 15.8535 37.7995 15.1734C37.0196 15.0543 34.1053 14.9527 33.4967 15.0233ZM36.5312 19.2801C40.242 19.6756 43.5403 21.2427 46.1359 23.8434C47.9224 25.6336 49.1725 27.6467 49.9513 29.9879C51.628 35.0281 50.7311 40.3376 47.476 44.6425C46.8665 45.4484 45.4487 46.8652 44.6422 47.4742C41.3423 49.9658 37.4396 51.09 33.4516 50.6978C27.2742 50.0901 21.9575 45.8549 20.014 39.9936C18.3363 34.9341 19.2274 29.6586 22.4895 25.3384C23.4987 24.002 25.4082 22.3058 26.8525 21.4629C29.8752 19.6988 33.2726 18.9326 36.5312 19.2801ZM33.4967 21.6253C28.3573 22.2566 23.9952 25.7123 22.3179 30.4813C21.2977 33.382 21.2694 36.3286 22.2342 39.2327C23.3448 42.5765 25.7335 45.3461 28.8838 46.943C31.9633 48.504 35.4202 48.8505 38.6414 47.921C43.9445 46.3907 47.7551 41.8641 48.3559 36.3811C48.6372 33.8134 48.1622 31.2946 46.9444 28.8956C45.0236 25.1118 41.4839 22.5009 37.2342 21.7335C36.4388 21.5898 34.2915 21.5277 33.4967 21.6253ZM36.1566 25.3358V25.9342C36.1566 26.2298 36.3962 26.4693 36.6917 26.4693C39.2194 26.4693 41.2516 28.4856 41.2619 31.0035C41.2662 32.0687 40.9605 33.0028 40.3573 33.768C40.1304 34.0558 40.1263 34.0737 40.2697 34.1493C40.3525 34.1929 40.6871 34.4968 41.0133 34.8245C42.951 36.7716 42.9777 39.8482 41.0747 41.9112C40.5835 42.4437 39.6864 43.0073 38.9506 43.2455C38.425 43.4156 38.112 43.4606 37.2323 43.4925C37.128 43.4963 37.0758 43.4982 37.0316 43.5038C36.565 43.5626 36.2024 43.9385 36.1606 44.4069C36.1566 44.4513 36.1566 44.5035 36.1566 44.6079V44.6551C36.1566 44.7698 36.1566 44.8271 36.1519 44.8755C36.1056 45.3512 35.7292 45.7276 35.2535 45.7739C35.2051 45.7786 35.1478 45.7786 35.0331 45.7786H34.9831H34.9432C34.8191 45.7786 34.7571 45.7786 34.7049 45.7731C34.2355 45.7237 33.8645 45.3527 33.8151 44.8833C33.8096 44.8311 33.8096 44.7691 33.8096 44.6451C33.8096 44.521 33.8096 44.459 33.8041 44.4068C33.7547 43.9374 33.3838 43.5664 32.9143 43.517C32.8621 43.5115 32.8001 43.5115 32.6761 43.5115H31.228H29.8189C29.6586 43.5115 29.5784 43.5115 29.5112 43.5023C29.0661 43.4416 28.7162 43.0917 28.6555 42.6467C28.6463 42.5794 28.6463 42.4992 28.6463 42.3389V42.105C28.6463 41.5866 29.0666 41.1663 29.5851 41.1663C30.1036 41.1663 30.5239 40.746 30.5239 40.2275V34.9904V29.7534C30.5239 29.2349 30.1036 28.8146 29.5851 28.8146C29.0666 28.8146 28.6463 28.3943 28.6463 27.8758V27.642C28.6463 27.4816 28.6463 27.4015 28.6555 27.3342C28.7162 26.8892 29.0661 26.5392 29.5112 26.4785C29.5784 26.4693 29.6586 26.4693 29.8189 26.4693H31.228H32.6761C32.8001 26.4693 32.8621 26.4693 32.9143 26.4639C33.3838 26.4144 33.7547 26.0435 33.8041 25.574C33.8096 25.5218 33.8096 25.4598 33.8096 25.3358C33.8096 25.2118 33.8096 25.1498 33.8151 25.0976C33.8645 24.6281 34.2355 24.2572 34.7049 24.2078C34.7571 24.2023 34.8191 24.2023 34.9432 24.2023H34.9831H35.023C35.1471 24.2023 35.2091 24.2023 35.2613 24.2078C35.7307 24.2572 36.1017 24.6281 36.1511 25.0976C36.1566 25.1498 36.1566 25.2118 36.1566 25.3358ZM32.8892 31.023L32.8913 31.2503C32.9001 32.185 32.9045 32.6524 33.1968 32.9419C33.4891 33.2315 33.9565 33.2315 34.8912 33.2315H35.0613H36.7485C36.9796 33.2315 37.0951 33.2315 37.2067 33.2056C37.3183 33.1797 37.422 33.1288 37.6295 33.027L37.6572 33.0134C38.4719 32.6136 38.9281 31.8859 38.9172 31.0035C38.9094 30.3732 38.7556 30.0044 38.2951 29.5125C37.6844 28.8601 37.4681 28.8146 34.979 28.8146H34.8873C33.9364 28.8146 33.4609 28.8146 33.1674 29.1108C32.874 29.407 32.8784 29.8825 32.8874 30.8334L32.8892 31.023ZM32.8708 38.392V39.157C32.8708 40.1079 32.8708 40.5834 33.1671 40.8768C33.4633 41.1703 33.9387 41.1658 34.8895 41.1569L35.4721 41.1515L37.619 41.1314C37.8452 41.1293 37.9583 41.1283 38.0674 41.1024C38.1765 41.0765 38.2781 41.0267 38.4811 40.9271L38.5222 40.907C39.0962 40.6254 39.608 40.1127 39.8837 39.5432C40.0705 39.1572 40.1013 38.9964 40.1041 38.391C40.1068 37.7901 40.0773 37.6234 39.9012 37.2481C39.622 36.6534 39.2286 36.2386 38.6419 35.9206L38.589 35.892C38.3714 35.7741 38.2625 35.7151 38.1439 35.6844C38.0252 35.6538 37.9014 35.6527 37.6539 35.6505L35.5112 35.6315L34.8886 35.626C33.9382 35.6176 33.4629 35.6134 33.1669 35.9068C32.8708 36.2002 32.8708 36.6754 32.8708 37.6259V38.392Z" fill="url(#paint0_linear_147_219)"/>
</g>
</g>
<defs>
<filter id="filter0_d_147_219" x="0" y="5" width="70" height="70" filterUnits="userSpaceOnUse" color-interpolation-filters="sRGB">
<feFlood flood-opacity="0" result="BackgroundImageFix"/>
<feColorMatrix in="SourceAlpha" type="matrix" values="0 0 0 0 0 0 0 0 0 0 0 0 0 0 0 0 0 0 127 0" result="hardAlpha"/>
<feOffset dy="5"/>
<feGaussianBlur stdDeviation="7.5"/>
<feComposite in2="hardAlpha" operator="out"/>
<feColorMatrix type="matrix" values="0 0 0 0 0.886275 0 0 0 0 0.643137 0 0 0 0 0.2 0 0 0 0.2 0"/>
<feBlend mode="normal" in2="BackgroundImageFix" result="effect1_dropShadow_147_219"/>
<feBlend mode="normal" in="SourceGraphic" in2="effect1_dropShadow_147_219" result="shape"/>
</filter>
<linearGradient id="paint0_linear_147_219" x1="30.4043" y1="5.71429" x2="57.0054" y2="15.1075" gradientUnits="userSpaceOnUse">
<stop stop-color="#FFCB6C"/>
<stop offset="1" stop-color="#E2A433"/>
</linearGradient>
<clipPath id="clip0_147_219">
<rect width="70" height="70" fill="white"/>
</clipPath>
</defs>
</svg>
