<svg width="70" height="70" viewBox="0 0 70 70" fill="none" xmlns="http://www.w3.org/2000/svg">
<g clip-path="url(#clip0_147_200)">
<g filter="url(#filter0_d_147_200)">
<path fill-rule="evenodd" clip-rule="evenodd" d="M15 30.1094V40.2188C15 41.1616 15 41.633 15.2929 41.9259C15.5858 42.2188 16.0572 42.2188 17 42.2188H35H53C53.9428 42.2188 54.4142 42.2188 54.7071 41.9259C55 41.633 55 41.1616 55 40.2188V30.1094V20C55 19.0572 55 18.5858 54.7071 18.2929C54.4142 18 53.9428 18 53 18H35H17C16.0572 18 15.5858 18 15.2929 18.2929C15 18.5858 15 19.0572 15 20V30.1094ZM41.623 25.1148C41.948 25.198 42.2311 25.2832 42.2521 25.3042C42.2894 25.3415 41.972 27.3821 41.921 27.4331C41.9069 27.4473 41.6183 27.365 41.2797 27.2503C40.8084 27.0906 40.4993 27.0396 39.9609 27.0326C39.1733 27.0223 38.7858 27.1262 38.4834 27.4285C38.0388 27.8732 38.3013 28.3674 39.2464 28.8644C40.7132 29.6356 41.3117 30.1059 41.6634 30.7633C41.81 31.0374 41.8359 31.2095 41.8359 31.9079C41.8359 32.6786 41.82 32.7623 41.5802 33.2495C40.9346 34.5607 39.4732 35.2756 37.4219 35.2837C36.3776 35.2878 35.7245 35.198 34.9384 34.9421C34.5578 34.8182 34.4555 34.753 34.4837 34.6528C34.5039 34.5816 34.5776 34.1367 34.6475 33.6641C34.8317 32.4194 34.7745 32.5026 35.2896 32.7304C35.9777 33.0348 36.6222 33.1748 37.3828 33.1855C38.5317 33.2016 39.1406 32.8652 39.1406 32.2142C39.1406 31.798 38.8776 31.5206 38.1062 31.1233C36.2503 30.1674 35.5469 29.3606 35.5469 28.1881C35.5469 27.7288 35.789 26.9976 36.0823 26.5714C37.0452 25.1719 39.4126 24.5495 41.623 25.1148ZM24.1692 25.2461C24.1908 25.3213 24.4978 26.8594 24.8516 28.6641C25.2053 30.4688 25.5078 31.9102 25.5239 31.8672C25.5399 31.8242 26.1084 30.2949 26.7873 28.4688L27.545 26.4303C27.7756 25.8098 27.891 25.4995 28.1435 25.3211C28.396 25.1427 28.727 25.1376 29.3889 25.1274L29.4084 25.1271C30.2275 25.1145 30.7846 25.1351 30.7688 25.1774C30.7542 25.2169 29.8311 27.4853 28.7176 30.2184L27.2004 33.9421C26.9545 34.5455 26.8316 34.8472 26.5786 35.0174C26.3255 35.1875 25.9981 35.1875 25.3433 35.1875C24.6009 35.1875 23.9772 35.1609 23.957 35.1284C23.9273 35.0803 23.3965 33.0902 21.945 27.5853C21.8747 27.3187 21.723 27.1817 20.4841 26.2664C19.7237 25.7046 19.0681 25.2145 19.0273 25.1772C18.9852 25.1387 20.0736 25.1094 21.5416 25.1094C23.9398 25.1094 24.133 25.1195 24.1692 25.2461ZM34.4531 25.1362C34.4531 25.207 32.8875 34.8587 32.8512 35.0117C32.8101 35.1852 32.7927 35.1875 31.522 35.1875C30.8138 35.1875 30.2344 35.1754 30.2344 35.1606C30.2344 35.0898 31.8 25.4382 31.8363 25.2852C31.8774 25.1116 31.8948 25.1094 33.1655 25.1094C33.8738 25.1094 34.4531 25.1215 34.4531 25.1362ZM49.9074 30.0508C50.4745 32.7686 50.9384 35.037 50.938 35.0919C50.9377 35.1693 50.6712 35.1867 49.7465 35.17L49.314 35.1622C48.87 35.1541 48.4903 34.8407 48.3984 34.4062C48.3068 33.9736 47.9249 33.6641 47.4826 33.6641H46.5697H45.7071C45.6072 33.6641 45.5572 33.6641 45.5119 33.6682C45.1567 33.7006 44.8456 33.9198 44.6955 34.2434C44.6764 34.2846 44.6596 34.3317 44.6259 34.4258C44.5923 34.5198 44.5755 34.5668 44.5564 34.608C44.4064 34.9318 44.0952 35.151 43.7399 35.1834C43.6946 35.1875 43.6447 35.1875 43.5449 35.1875H42.9972C42.2511 35.1875 41.6406 35.1727 41.6406 35.1545C41.6406 35.0153 45.6391 25.6133 45.7525 25.4862C46.0348 25.1694 46.3034 25.1156 47.6217 25.1124C48.0392 25.1114 48.2479 25.1109 48.4221 25.1778C48.6197 25.2536 48.7882 25.3902 48.9032 25.5678C49.0046 25.7244 49.0472 25.9288 49.1325 26.3375L49.9074 30.0508ZM46.3465 29.7034C45.9913 30.6787 45.7012 31.5029 45.702 31.5352C45.7026 31.5674 46.1816 31.5938 46.7663 31.5938H47.6483C47.7404 31.5938 47.808 31.5073 47.7858 31.418C47.7618 31.3212 47.5962 30.5215 47.4178 29.6406C47.2394 28.7598 47.0706 28.0146 47.0428 27.9847C47.015 27.9548 46.7016 28.7282 46.3465 29.7034Z" fill="url(#paint0_linear_147_200)"/>
</g>
<g filter="url(#filter1_d_147_200)">
<path fill-rule="evenodd" clip-rule="evenodd" d="M54.1892 48.509V49.4183L53.8491 49.2069C52.9341 48.6381 51.6663 49.1172 51.319 50.1629C51.1643 50.6287 51.2031 51.3701 51.4023 51.755C51.9143 52.7441 53.2826 53.0672 54.0372 52.3772L54.1892 52.2382V52.4527V52.6672H54.5946H55V50.1334V47.5996H54.5946H54.1892V48.509ZM30.5405 48.478V49.0185H30.2027H29.8649V49.3901V49.7618H30.1957H30.5266L30.5505 50.8597C30.5766 52.0614 30.6326 52.2585 31.0326 52.5567C31.2945 52.7519 32.0557 52.7937 32.4697 52.6356C32.8011 52.5091 32.8185 52.4612 32.6655 52.0951C32.5859 51.9047 32.5332 51.8552 32.4459 51.889C32.3828 51.9135 32.1892 51.9505 32.0158 51.9712C31.7399 52.0043 31.6787 51.9872 31.5259 51.8344C31.3548 51.6633 31.3514 51.6412 31.3514 50.7108V49.7618H31.9932H32.6351V49.3901V49.0185H31.9932H31.3514V48.478V47.9374H30.9459H30.5405V48.478ZM16.3514 49.0267C16.2584 49.0636 16.0989 49.1738 15.9966 49.2715L15.8108 49.4492V49.2339V49.0185H15.4054H15V50.8429V52.6672H15.4054H15.8108L15.8111 51.4679C15.8113 50.3983 15.8255 50.2451 15.943 50.0526C16.2208 49.5969 17.0224 49.5969 17.3003 50.0526C17.4177 50.2451 17.432 50.3983 17.4322 51.4679L17.4324 52.6672H17.8336H18.2347L18.2559 51.4557C18.2751 50.3512 18.2895 50.2273 18.4183 50.0537C18.6271 49.772 19.0337 49.6465 19.3907 49.7535C19.6232 49.8231 19.6951 49.8874 19.801 50.1208C19.9106 50.3622 19.9297 50.5697 19.9309 51.5354L19.9324 52.6672H20.3716H20.8108V51.4471C20.8108 50.0218 20.7518 49.712 20.4124 49.3562C19.8993 48.8184 18.7918 48.819 18.2759 49.3575L18.0865 49.5553L17.8318 49.3251C17.4538 48.9837 16.7941 48.8507 16.3514 49.0267ZM22.7287 49.0602C22.3252 49.2033 21.9252 49.577 21.727 49.9959C21.4906 50.4956 21.4852 51.1989 21.7139 51.69C21.9026 52.0954 22.3884 52.5448 22.7572 52.6553C23.3598 52.8358 23.9924 52.7271 24.375 52.3772L24.527 52.2382V52.4527V52.6672H24.8986H25.2703V50.8429V49.0185H24.8986C24.5308 49.0185 24.527 49.0206 24.527 49.2212C24.527 49.448 24.4542 49.4793 24.3157 49.3119C24.0449 48.9846 23.2827 48.8637 22.7287 49.0602ZM27.0259 49.0545C26.235 49.2983 25.9302 50.2299 26.4603 50.7832C26.6584 50.99 27.0595 51.1335 27.6689 51.2156C28.2024 51.2875 28.4459 51.4134 28.4459 51.6174C28.4459 52.0547 27.5535 52.2029 26.7959 51.8914C26.3541 51.7097 26.3786 51.7008 26.1177 52.1407C26.0122 52.3187 26.0143 52.3262 26.1972 52.4187C26.9282 52.7883 27.9865 52.8431 28.5975 52.5428C29.0503 52.3203 29.223 52.0529 29.223 51.5741C29.223 50.9147 28.7941 50.5688 27.8277 50.4488C27.2097 50.3721 27.027 50.2851 27.027 50.0673C27.027 49.627 27.862 49.5584 28.7291 49.9272C28.8183 49.9652 28.8807 49.9022 29.0141 49.6389L29.1847 49.3021L28.9645 49.1976C28.4339 48.9458 27.5822 48.8829 27.0259 49.0545ZM34.5907 49.015C33.8154 49.2503 33.3108 49.971 33.3108 50.8429C33.3108 51.6324 33.7161 52.2892 34.3919 52.5944C34.9619 52.8519 36.0251 52.7358 36.5152 52.3624C36.6522 52.2581 36.6274 52.1571 36.3851 51.8316C36.2941 51.7094 36.2814 51.7104 35.9676 51.8622C35.2907 52.1899 34.6004 52.0801 34.275 51.593C33.9961 51.1755 33.9808 51.1807 35.4827 51.1807H36.8437L36.7994 50.7035C36.7232 49.8837 36.4225 49.3787 35.8525 49.1133C35.4967 48.9476 34.9525 48.9052 34.5907 49.015ZM38.9865 49.0267C38.8936 49.0636 38.7339 49.1738 38.6318 49.2715L38.4459 49.4492V49.2339V49.0185H38.0743H37.7027V50.8429V52.6672H38.0678H38.4328L38.4579 51.4679C38.4914 49.8661 38.5986 49.6574 39.3641 49.7052L39.7287 49.728L39.8306 49.4288C39.9891 48.9633 39.9812 48.9504 39.5439 48.9552C39.3302 48.9576 39.0794 48.9897 38.9865 49.0267ZM41.4803 49.056C40.4473 49.3741 39.9349 50.6875 40.4338 51.7386C40.7489 52.4024 41.3318 52.7313 42.1959 52.7326C42.6286 52.7333 42.8073 52.7005 43.0912 52.5683C43.2863 52.4774 43.4459 52.3816 43.4459 52.3553C43.4459 52.2613 43.097 51.7139 43.0523 51.7378C42.2309 52.1774 41.5301 52.0915 41.1872 51.5091C41.0171 51.2202 41.0065 50.5572 41.1671 50.257C41.4514 49.7256 42.1844 49.5393 42.7826 49.8466L43.0991 50.0091L43.2716 49.6923C43.4401 49.3826 43.4411 49.3729 43.3162 49.2599C42.9978 48.9718 42.0834 48.8701 41.4803 49.056ZM45.0874 49.0447C44.4186 49.2634 43.9289 49.9162 43.8684 50.6696C43.7752 51.8316 44.5545 52.7324 45.6544 52.7341C46.1445 52.7349 46.3834 52.6571 46.6385 52.4137L46.8243 52.2365V52.4518V52.6672H47.2297H47.6351V50.8429V49.0185H47.2297C46.8249 49.0185 46.8243 49.0189 46.8243 49.2198V49.4212L46.5286 49.2127C46.2905 49.0449 46.1491 48.9992 45.8023 48.9781C45.5474 48.9625 45.2556 48.9897 45.0874 49.0447ZM50 49.0267C49.9071 49.0636 49.7475 49.1738 49.6453 49.2715L49.4595 49.4492V49.2339V49.0185H49.0878H48.7162V50.8429V52.6672H49.0878H49.4595L49.4611 51.603C49.463 50.3691 49.5174 50.0588 49.7701 49.8408C49.9254 49.7068 50.0122 49.6866 50.3505 49.7056L50.7483 49.728L50.8471 49.3947C50.9015 49.2115 50.9459 49.0367 50.9459 49.0062C50.9459 48.9291 50.2053 48.9451 50 49.0267ZM35.5074 49.7239C35.7451 49.8233 36.0128 50.174 36.0132 50.3868C36.0135 50.4938 35.9234 50.505 35.0667 50.505H34.1198L34.2235 50.2568C34.3597 49.931 34.4513 49.8269 34.6959 49.7203C34.9634 49.6037 35.2225 49.6049 35.5074 49.7239ZM24.13 49.935C24.9083 50.667 24.4667 52.02 23.4507 52.0164C23.0717 52.015 22.7637 51.8614 22.556 51.5702C22.4249 51.3863 22.3986 51.2653 22.3986 50.8429C22.3986 50.4164 22.4243 50.3001 22.5605 50.1091C22.7809 49.8001 23.0582 49.6872 23.5305 49.7143C23.8503 49.7326 23.9564 49.7718 24.13 49.935ZM46.352 49.8462C46.6702 50.0628 46.8174 50.291 46.8647 50.6408C46.983 51.5176 46.3077 52.1981 45.5277 51.9881C44.5775 51.7322 44.3786 50.3414 45.219 49.829C45.5305 49.6391 46.0595 49.6471 46.352 49.8462ZM53.7231 49.8468C53.9995 50.0304 54.2573 50.5118 54.2553 50.8403C54.2507 51.5745 53.5631 52.1686 52.9186 51.9951C52.4014 51.8558 52.0318 51.3763 52.0285 50.8403C52.0265 50.5118 52.2843 50.0304 52.5607 49.8468C52.8767 49.6368 53.4071 49.6368 53.7231 49.8468Z" fill="url(#paint1_linear_147_200)"/>
</g>
</g>
<defs>
<filter id="filter0_d_147_200" x="0" y="8" width="70" height="54.2188" filterUnits="userSpaceOnUse" color-interpolation-filters="sRGB">
<feFlood flood-opacity="0" result="BackgroundImageFix"/>
<feColorMatrix in="SourceAlpha" type="matrix" values="0 0 0 0 0 0 0 0 0 0 0 0 0 0 0 0 0 0 127 0" result="hardAlpha"/>
<feOffset dy="5"/>
<feGaussianBlur stdDeviation="7.5"/>
<feComposite in2="hardAlpha" operator="out"/>
<feColorMatrix type="matrix" values="0 0 0 0 0.886275 0 0 0 0 0.643137 0 0 0 0 0.2 0 0 0 0.2 0"/>
<feBlend mode="normal" in2="BackgroundImageFix" result="effect1_dropShadow_147_200"/>
<feBlend mode="normal" in="SourceGraphic" in2="effect1_dropShadow_147_200" result="shape"/>
</filter>
<filter id="filter1_d_147_200" x="0" y="37.5996" width="70" height="35.1445" filterUnits="userSpaceOnUse" color-interpolation-filters="sRGB">
<feFlood flood-opacity="0" result="BackgroundImageFix"/>
<feColorMatrix in="SourceAlpha" type="matrix" values="0 0 0 0 0 0 0 0 0 0 0 0 0 0 0 0 0 0 127 0" result="hardAlpha"/>
<feOffset dy="5"/>
<feGaussianBlur stdDeviation="7.5"/>
<feComposite in2="hardAlpha" operator="out"/>
<feColorMatrix type="matrix" values="0 0 0 0 0.886275 0 0 0 0 0.643137 0 0 0 0 0.2 0 0 0 0.2 0"/>
<feBlend mode="normal" in2="BackgroundImageFix" result="effect1_dropShadow_147_200"/>
<feBlend mode="normal" in="SourceGraphic" in2="effect1_dropShadow_147_200" result="shape"/>
</filter>
<linearGradient id="paint0_linear_147_200" x1="30.4043" y1="12.3778" x2="52.7289" y2="25.3977" gradientUnits="userSpaceOnUse">
<stop stop-color="#FFCB6C"/>
<stop offset="1" stop-color="#E2A433"/>
</linearGradient>
<linearGradient id="paint1_linear_147_200" x1="30.4043" y1="46.4052" x2="33.909" y2="56.0267" gradientUnits="userSpaceOnUse">
<stop stop-color="#FFCB6C"/>
<stop offset="1" stop-color="#E2A433"/>
</linearGradient>
<clipPath id="clip0_147_200">
<rect width="70" height="70" fill="white"/>
</clipPath>
</defs>
</svg>
