<svg width="90" height="62" viewBox="0 0 90 62" fill="none" xmlns="http://www.w3.org/2000/svg">
<path fill-rule="evenodd" clip-rule="evenodd" d="M36.8617 0.0511642C28.0497 0.699117 20.2784 3.87626 13.6766 9.52993C11.0894 11.7455 8.56261 14.6106 6.63041 17.5194C2.65245 23.5078 0.462078 30.0875 0.0456225 37.2994C-0.0737404 39.3661 0.0538104 43.6289 0.280893 45.1637C1.28327 51.9374 5.77857 57.7886 12.0078 60.4276C14.6386 61.5421 16.8307 61.9788 19.7723 61.9745C22.5345 61.9703 24.4209 61.6279 26.851 60.6896C30.5882 59.2465 33.8715 56.5947 36.126 53.1986C40.0433 47.2976 40.4982 39.7422 37.3167 33.4187C36.3029 31.4035 35.2179 29.9115 33.5616 28.2549C30.0775 24.7704 25.5173 22.784 20.4859 22.5591C19.5076 22.5154 17.8574 22.5976 17.0032 22.7325C16.735 22.7749 16.7189 22.7675 16.7912 22.6355C17.0277 22.2039 18.3503 20.6768 19.4336 19.5845C21.6009 17.3993 23.727 15.8201 26.3737 14.4296C29.7547 12.6532 33.9286 11.4929 37.5002 11.3364C37.996 11.3146 38.6129 11.2786 38.8711 11.2562V11.2562C39.1367 11.2332 39.3406 11.0108 39.3406 10.7442V5.60771V1.07051C39.3406 1.01662 39.3406 0.98967 39.3396 0.966968C39.3158 0.44566 38.8953 0.0302262 38.3737 0.0129436C38.351 0.012191 38.324 0.0125229 38.2701 0.0131869V0.0131869C37.6814 0.0204207 37.0476 0.0375254 36.8617 0.0511642ZM86.9656 0.0861279C83.184 0.369979 78.9362 1.35189 75.4349 2.75141C62.3361 7.98725 52.9766 19.8759 50.993 33.7981C50.6798 35.9965 50.6455 36.6313 50.6574 40.012C50.6715 44.0551 50.767 45.0982 51.3249 47.2942C51.6633 48.6268 52.0058 49.5384 52.7082 50.9757C56.12 57.9581 63.2261 62.2447 70.9654 61.9892C71.7297 61.9639 72.6931 61.8936 73.1062 61.8327C76.6296 61.3145 79.9431 59.8747 82.6838 57.671C83.4745 57.0352 84.9815 55.5355 85.5878 54.781C87.9138 51.8866 89.3289 48.6091 89.8661 44.8722C90.026 43.7601 90.0473 41.0808 89.905 39.9743C89.3209 35.4309 87.3745 31.4444 84.1844 28.257C81.161 25.2363 77.3488 23.3527 72.956 22.7088C71.8458 22.5461 69.0988 22.5258 68.0491 22.6726C67.6639 22.7265 67.3366 22.7582 67.3216 22.7432C67.2576 22.679 68.8974 20.7508 69.8342 19.7887C73.9757 15.535 79.1084 12.7821 84.874 11.7219C86.0695 11.5021 87.8527 11.3031 88.6348 11.3021C88.9355 11.3018 89.359 11.2801 89.5759 11.254V11.254C89.801 11.2269 89.9703 11.0359 89.9703 10.8092V5.60326V1.07049C89.9703 1.01436 89.9703 0.986294 89.9692 0.962639C89.9446 0.443763 89.5268 0.0301136 89.0077 0.0106756C88.984 0.00978947 88.956 0.010068 88.8999 0.0106251V0.0106251C88.3111 0.0164273 87.4407 0.050411 86.9656 0.0861279Z" fill="url(#paint0_linear_32_823)"/>
<defs>
<linearGradient id="paint0_linear_32_823" x1="34.6596" y1="-14.3929" x2="87.9685" y2="12.9325" gradientUnits="userSpaceOnUse">
<stop stop-color="#FFCB6C" stop-opacity="0.2"/>
<stop offset="1" stop-color="#E2A433" stop-opacity="0.3"/>
</linearGradient>
</defs>
</svg>
