<svg width="40" height="40" viewBox="0 0 40 40" fill="none" xmlns="http://www.w3.org/2000/svg">
<rect width="40" height="40" rx="20" fill="#0E57CA"/>
<path d="M20 11.1111C17.5837 11.1111 15.625 13.0698 15.625 15.4861C15.625 17.4396 18.4844 21 19.5799 22.2923C19.8017 22.5541 20.1986 22.5541 20.4201 22.2923C21.5156 21 24.375 17.4396 24.375 15.4861C24.375 13.0698 22.4163 11.1111 20 11.1111ZM20 16.9444C19.1944 16.9444 18.5417 16.2916 18.5417 15.4861C18.5417 14.6805 19.1944 14.0278 20 14.0278C20.8056 14.0278 21.4583 14.6805 21.4583 15.4861C21.4583 16.2916 20.8056 16.9444 20 16.9444ZM10.6986 18.6093C10.4924 18.6918 10.3157 18.8342 10.1911 19.018C10.0666 19.2019 10 19.4189 10 19.6409V28.3326C10 28.7257 10.3969 28.9944 10.7618 28.8486L15.5556 26.6666V18.5736C15.2486 18.0187 14.9976 17.4784 14.8177 16.9618L10.6986 18.6093ZM20 23.5996C19.5115 23.5996 19.0493 23.385 18.7323 23.0107C18.0497 22.2052 17.3236 21.2878 16.6667 20.3468V26.6663L23.3333 28.8885V20.3472C22.6764 21.2878 21.9507 22.2055 21.2677 23.0111C20.9507 23.385 20.4885 23.5996 20 23.5996ZM29.2382 16.7069L24.4444 18.8889V28.8889L29.3014 26.9462C29.5076 26.8637 29.6844 26.7214 29.8089 26.5375C29.9334 26.3536 30 26.1366 30 25.9146V17.2229C30 16.8298 29.6031 16.5611 29.2382 16.7069Z" fill="white"/>
</svg>
