<svg width="130" height="42" viewBox="0 0 130 42" fill="none" xmlns="http://www.w3.org/2000/svg">
<g clip-path="url(#clip0_4_10)">
<path d="M0 5.66431C0.371429 5.66431 0.928571 5.57146 1.67143 5.4786C2.41429 5.38574 3.34286 5.38574 4.45714 5.38574C5.29286 5.38574 6.12857 5.4786 6.96429 5.57146C7.70714 5.75717 8.45 6.03574 9.19286 6.50003C9.84286 6.96431 10.4 7.52146 10.8643 8.26431C11.2357 9.00717 11.5143 10.0286 11.5143 11.2357C11.5143 12.35 11.3286 13.2786 11.05 13.9286C10.6786 14.6715 10.3071 15.2286 9.75 15.6929C9.19286 16.1572 8.54286 16.4357 7.89286 16.6215C7.15 16.8072 6.5 16.9 5.75714 16.9H4.82857C4.55 16.9 4.27143 16.8072 4.17857 16.8072V22.1929C3.62143 22.2857 3.25 22.2857 2.97143 22.3786H2.04286C1.48571 22.3786 0.835714 22.2857 0 22.1929V5.66431ZM3.99286 13.4643C4.08571 13.4643 4.17857 13.5572 4.36429 13.5572H4.92143C5.57143 13.5572 6.12857 13.3715 6.5 13C6.87143 12.6286 7.15 12.0715 7.15 11.2357C7.15 10.7715 7.05714 10.4 6.96429 10.0286C6.96429 9.75003 6.77857 9.47146 6.5 9.28574C6.31429 9.10003 6.03571 8.91431 5.66429 8.91431C5.38571 8.82146 5.01429 8.82146 4.73571 8.82146H4.08571L3.99286 13.4643ZM13.5571 5.66431C13.9286 5.66431 14.3929 5.57146 14.6714 5.57146H16.5286C16.9 5.57146 17.2714 5.66431 17.6429 5.66431V18.5715H22.9357C23.0286 18.9429 23.0286 19.3143 23.1214 19.5929V21.1715C23.1214 21.45 23.0286 21.8215 22.9357 22.1929H13.5571V5.66431ZM27.6714 22.1929C27.3 22.2857 27.0214 22.2857 26.7429 22.2857H25.9071C25.6286 22.2857 25.35 22.2857 24.9786 22.1929C24.6071 22.1929 24.2357 22.1 23.7714 22.0072L28.7857 5.66431C29.1571 5.66431 29.5286 5.57146 29.9 5.57146H31.85C32.2214 5.57146 32.5929 5.66431 33.0571 5.66431L38.1643 22.1929C37.3286 22.2857 36.4929 22.3786 35.8429 22.3786H34.9143C34.6357 22.3786 34.2643 22.2857 33.8929 22.2857L33.0571 19.0357C32.5929 19.1286 32.2214 19.2215 31.85 19.3143C31.4786 19.4072 31.1071 19.4072 30.6429 19.4072C30.2714 19.4072 29.9 19.4072 29.5286 19.3143C29.1571 19.2215 28.7857 19.2215 28.4143 19.0357L27.6714 22.1929ZM30.8286 10.0286L29.25 15.9715C29.5286 16.0643 29.7143 16.0643 29.9929 16.1572C30.1786 16.1572 30.4571 16.25 30.7357 16.25C31.0143 16.25 31.2929 16.25 31.4786 16.1572C31.7571 16.1572 32.0357 16.0643 32.3143 15.9715L30.8286 10.0286ZM46.2429 5.66431C46.6143 5.66431 46.9857 5.57146 47.3571 5.57146H48.5643C48.8429 5.57146 49.1214 5.57146 49.5857 5.66431C49.9571 5.66431 50.3286 5.75717 50.6071 5.75717L45.5 16.3429V22.1929C44.6643 22.2857 44.0143 22.3786 43.4571 22.3786C42.9 22.3786 42.1571 22.2857 41.4143 22.1929V16.3429C41.0429 15.5072 40.5786 14.6715 40.1143 13.7429C39.65 12.8143 39.2786 11.9786 38.8143 11.05C38.35 10.1215 37.9786 9.28574 37.5143 8.35717C37.05 7.4286 36.6786 6.59288 36.3071 5.75717C36.5857 5.75717 36.9571 5.66431 37.3286 5.66431C37.7929 5.57146 38.1643 5.57146 38.6286 5.57146C38.9071 5.57146 39.2786 5.57146 39.7429 5.66431C40.1143 5.66431 40.4857 5.75717 40.7643 5.75717L43.6429 12.1643L46.2429 5.66431ZM85.2429 22.1929C84.8714 22.2857 84.5929 22.2857 84.3143 22.2857H83.4786C83.2 22.2857 82.9214 22.2857 82.55 22.1929C82.1786 22.1929 81.8071 22.1 81.3428 22.0072L86.3571 5.66431C86.7286 5.66431 87.1 5.57146 87.4714 5.57146H89.4214C89.7929 5.57146 90.1643 5.66431 90.6286 5.66431L95.7357 22.1929C94.9 22.2857 94.0643 22.3786 93.4143 22.3786H92.4857C92.2071 22.3786 91.8357 22.2857 91.4643 22.2857L90.6286 19.0357C90.1643 19.1286 89.7929 19.2215 89.4214 19.3143C89.05 19.4072 88.6786 19.4072 88.2143 19.4072C87.8429 19.4072 87.4714 19.4072 87.1 19.3143C86.7286 19.2215 86.3571 19.2215 85.9857 19.0357L85.2429 22.1929ZM88.4929 10.0286L86.9143 15.9715C87.1929 16.0643 87.3786 16.0643 87.6571 16.1572C87.8429 16.1572 88.1214 16.25 88.4 16.25C88.6786 16.25 88.9571 16.25 89.1429 16.1572C89.4214 16.1572 89.7 16.0643 89.9786 15.9715L88.4929 10.0286ZM97.7786 5.66431C98.0571 5.66431 98.4286 5.57146 98.8 5.57146C99.1714 5.57146 99.5429 5.4786 99.8214 5.4786C100.1 5.4786 100.471 5.4786 100.843 5.57146C101.214 5.57146 101.586 5.66431 101.864 5.66431L105.114 14.3L108.55 5.66431C108.829 5.66431 109.2 5.57146 109.479 5.57146C109.757 5.57146 110.129 5.4786 110.407 5.4786C110.686 5.4786 111.057 5.4786 111.429 5.57146C111.8 5.57146 112.079 5.66431 112.45 5.66431L113.193 22.1929C112.914 22.1929 112.636 22.2857 112.357 22.2857C112.079 22.3786 111.614 22.3786 111.15 22.3786C110.593 22.3786 109.943 22.2857 109.2 22.1929L108.921 12.6286L106.414 18.9429C106.136 18.9429 105.857 19.0357 105.579 19.0357H104.093C103.814 19.0357 103.629 18.9429 103.35 18.9429L101.121 12.7215L100.843 22.1929C100.193 22.2857 99.5429 22.3786 98.9857 22.3786C98.4286 22.3786 97.7786 22.2857 97.1286 22.1929L97.7786 5.66431ZM115.421 14.0215C115.421 12.8143 115.607 11.6072 115.886 10.5857C116.164 9.56431 116.629 8.63574 117.186 7.89288C117.743 7.15003 118.579 6.50003 119.414 6.03574C120.343 5.57146 121.457 5.38574 122.664 5.38574C123.964 5.38574 124.986 5.57146 125.914 6.03574C126.843 6.50003 127.586 7.05717 128.143 7.89288C128.7 8.63574 129.164 9.56431 129.443 10.5857C129.721 11.6072 129.907 12.8143 129.907 14.0215C129.907 15.2286 129.721 16.4357 129.443 17.4572C129.164 18.4786 128.7 19.4072 128.143 20.15C127.586 20.8929 126.843 21.5429 125.914 21.9143C124.986 22.3786 123.964 22.5643 122.664 22.5643C121.364 22.5643 120.343 22.3786 119.414 21.9143C118.486 21.45 117.743 20.8929 117.186 20.15C116.629 19.4072 116.164 18.4786 115.886 17.4572C115.514 16.3429 115.421 15.2286 115.421 14.0215ZM125.636 14.0215C125.636 10.6786 124.614 9.00717 122.664 9.00717C120.621 9.00717 119.693 10.6786 119.693 14.0215C119.693 15.6929 119.971 16.9929 120.436 17.7357C120.9 18.5715 121.643 18.9429 122.664 18.9429C124.614 19.0357 125.636 17.3643 125.636 14.0215Z" fill="white"/>
<path d="M78.8361 8.82126L71.5932 2.8784C69.829 1.85698 67.8789 1.5784 66.1147 1.20698C65.3718 1.02126 64.629 0.835547 63.8861 0.74269L61.3789 0.278404C61.1004 0.278404 60.9147 0.185547 60.6361 0.185547C62.8647 2.13555 64.7218 4.27126 66.7647 6.1284L69.179 8.0784C71.4075 9.3784 73.729 9.28555 75.8647 9.56412C76.5147 9.65698 77.0718 9.74983 77.629 9.74983L80.3218 9.93555C79.7647 9.74983 79.3004 9.28555 78.8361 8.82126ZM63.3289 1.67126C64.1647 0.928404 65.929 1.94983 66.3004 2.97126C65.3718 3.43555 64.1647 2.59983 63.3289 1.67126ZM68.529 6.22126C69.4575 5.66412 71.3147 6.7784 71.5932 7.79983C70.7575 8.44983 68.8075 7.24269 68.529 6.22126ZM69.6432 2.8784C70.2004 2.32126 72.0575 3.24983 72.3361 4.1784C71.779 4.64269 70.1075 3.80698 69.6432 2.8784ZM74.6575 7.33555C75.4932 6.59269 77.0718 7.70698 77.629 8.63555C76.7932 9.28555 75.4932 8.26412 74.6575 7.33555ZM80.229 11.0498L76.979 10.5855C76.4218 10.4927 75.8647 10.4927 75.3075 10.3998C73.9147 10.2141 71.8718 9.74983 70.8504 10.1213C68.7147 10.6784 67.879 12.9998 66.8575 14.857C65.7432 17.0855 64.629 18.9427 63.4218 21.357C62.9575 22.1927 61.8432 23.957 62.4004 24.607C62.8647 25.1641 64.5361 24.7927 64.9075 24.6998C65.8361 24.607 66.6718 24.5141 67.4147 24.5141C68.7147 24.4213 71.4075 24.3284 72.429 23.8641C72.9861 23.5855 73.729 23.0284 74.2861 22.2855C74.5647 21.9141 74.8432 21.5427 75.029 21.1713L80.3218 12.0713C80.4147 11.607 80.4147 11.3284 80.229 11.0498ZM65.1861 22.657C64.1647 21.7284 66.8575 19.0355 67.879 20.707C67.879 21.8213 66.1147 23.4927 65.1861 22.657ZM67.3218 19.0355C66.3004 18.107 68.529 16.0641 69.4575 16.4355C70.9432 17.0855 68.4361 19.9641 67.3218 19.0355ZM69.3647 15.1355C68.3432 14.207 70.5718 11.9784 71.5932 12.4427C73.1718 13.1855 70.479 16.157 69.3647 15.1355ZM71.5932 22.1927C70.8504 21.357 72.8932 19.5927 73.729 20.057C74.7504 20.6141 72.429 23.2141 71.5932 22.1927ZM73.6361 18.9427C72.7075 18.1998 74.7504 15.9713 75.7718 16.5284C76.8861 17.2713 74.4718 19.5927 73.6361 18.9427ZM75.7718 15.3213C74.9361 14.4855 76.979 12.4427 77.9075 12.907C79.0218 13.557 76.7004 16.3427 75.7718 15.3213ZM63.979 4.54983C63.1432 3.80698 62.3075 2.78555 61.5647 2.04269L60.2647 1.02126C60.1718 1.02126 60.0789 0.928404 59.9861 0.928404C58.7789 0.464118 58.2218 2.32126 57.7575 3.34269C57.0147 5.01412 55.8075 7.79983 54.9718 9.65697C54.4147 10.7713 53.8575 11.7927 53.5789 12.8141C53.2075 14.4855 54.1361 15.6927 55.3432 17.2713C56.5504 18.9427 57.4789 20.1498 58.6861 21.8213C58.9647 22.1927 59.8004 23.7713 60.6361 23.7713C61.5647 23.7713 62.2147 21.9141 62.7718 20.9855C64.0718 18.5713 65.0004 16.807 66.2075 14.5784C66.7647 13.557 67.5075 12.4427 67.879 11.3284C68.8075 8.54269 66.6718 7.14983 63.979 4.54983ZM56.0861 14.7641C54.0432 14.5784 55.4361 10.1213 56.9218 11.9784C57.3861 12.6284 57.1075 14.3927 56.0861 14.7641ZM60.1718 4.08555C61.1932 4.8284 60.729 7.14983 59.3361 7.33555C57.6647 7.24269 58.5932 2.97126 60.1718 4.08555ZM59.7075 10.307C61.1004 9.65698 61.8432 12.9998 60.1718 13.6498C58.6861 13.9284 58.4075 10.8641 59.7075 10.307ZM60.4504 20.3355C59.0575 19.8713 58.8718 17.6427 60.0789 16.8998C61.4718 16.0641 62.4932 20.057 60.4504 20.3355ZM64.7218 12.4427C63.2361 12.9998 62.4932 9.93555 64.0718 9.00698C64.3504 8.82126 64.629 8.91412 65.0004 9.09983C65.929 9.56412 66.1147 11.8855 64.7218 12.4427Z" fill="#CF222D"/>
<path d="M14.1144 29.343C14.2073 29.343 14.3001 29.343 14.393 29.4359C14.4859 29.5287 14.4859 29.6216 14.4859 29.7145V30.1787C14.4859 30.2716 14.4859 30.3645 14.393 30.4573C14.3001 30.5502 14.2073 30.5502 14.1144 30.5502H11.6073V38.443C11.6073 38.5359 11.6073 38.6287 11.5144 38.7216C11.4216 38.8145 11.3287 38.8145 11.2359 38.8145H10.6787C10.5859 38.8145 10.493 38.8145 10.4001 38.7216C10.3073 38.6287 10.3073 38.5359 10.3073 38.443V30.5502H7.80014C7.70728 30.5502 7.61443 30.5502 7.52157 30.4573C7.52157 30.3645 7.42871 30.2716 7.42871 30.1787V29.7145C7.42871 29.6216 7.42871 29.5287 7.52157 29.4359C7.61443 29.343 7.70728 29.343 7.80014 29.343H14.1144ZM21.2644 38.443C21.2644 38.5359 21.2644 38.6287 21.1716 38.7216C21.0787 38.8145 20.9859 38.8145 20.893 38.8145H20.4287C20.3359 38.8145 20.243 38.8145 20.1501 38.7216C20.0573 38.6287 20.0573 38.5359 20.0573 38.443V34.9145C20.0573 34.2645 19.8716 33.7073 19.593 33.3359C19.2216 32.9645 18.7573 32.7787 18.2001 32.7787C17.643 32.7787 17.1787 32.9645 16.8073 33.3359C16.4359 33.7073 16.2501 34.1716 16.2501 34.9145V38.443C16.2501 38.5359 16.2501 38.6287 16.1573 38.7216C16.0644 38.8145 15.9716 38.8145 15.8787 38.8145H15.4144C15.3216 38.8145 15.2287 38.8145 15.1359 38.7216C15.043 38.6287 15.043 38.5359 15.043 38.443V29.6216C15.043 29.5287 15.043 29.4359 15.1359 29.343C15.2287 29.2502 15.3216 29.2502 15.4144 29.2502H15.8787C15.9716 29.2502 16.0644 29.2502 16.1573 29.343C16.2501 29.4359 16.2501 29.5287 16.2501 29.6216V32.593C16.4359 32.4073 16.7144 32.1287 16.993 31.943C17.2716 31.7573 17.7359 31.6645 18.293 31.6645C18.7573 31.6645 19.1287 31.7573 19.5001 31.8502C19.8716 31.943 20.1501 32.2216 20.4287 32.4073C20.7073 32.6859 20.893 32.9645 20.9859 33.3359C21.1716 33.7073 21.1716 34.1716 21.1716 34.6359V38.443H21.2644ZM21.8216 34.6359C21.8216 34.2645 21.9144 33.8002 22.1001 33.4287C22.2859 33.0573 22.4716 32.7787 22.7501 32.5002C23.0287 32.2216 23.3073 32.0359 23.6787 31.8502C24.0501 31.6645 24.4216 31.6645 24.8859 31.6645C25.3501 31.6645 25.8144 31.7573 26.1859 31.943C26.5573 32.1287 26.9287 32.3145 27.2073 32.593C27.4859 32.8716 27.6716 33.243 27.8573 33.7073C28.043 34.1716 28.043 34.6359 28.043 35.1002V35.4716C28.043 35.5645 28.043 35.6573 27.9501 35.7502C27.8573 35.843 27.7644 35.843 27.6716 35.843H23.0287V35.9359C23.0287 36.5859 23.2144 37.0502 23.5859 37.3287C23.9573 37.7002 24.4216 37.793 24.8859 37.793C25.3501 37.793 25.7216 37.7002 26.0001 37.6073C26.2787 37.5145 26.4644 37.3287 26.5573 37.143L26.743 36.9573C26.8359 36.8645 26.8359 36.9573 27.0216 36.9573H27.393C27.4859 36.9573 27.5787 36.9573 27.6716 37.0502C27.8573 37.0502 27.8573 37.143 27.8573 37.2359C27.8573 37.4216 27.7644 37.6073 27.6716 37.793C27.5787 37.9787 27.393 38.1645 27.1144 38.3502C26.8359 38.5359 26.5573 38.6287 26.1859 38.8145C25.8144 39.0002 25.443 39.0002 24.9787 39.0002C24.5144 39.0002 24.143 38.9073 23.7716 38.7216C23.4001 38.5359 23.1216 38.3502 22.843 38.0716C22.5644 37.793 22.3787 37.5145 22.193 37.143C22.0073 36.7716 21.9144 36.4002 21.9144 35.9359C21.8216 35.4716 21.8216 35.0073 21.8216 34.6359ZM23.0287 34.6359H26.8359C26.8359 34.0787 26.6501 33.6145 26.2787 33.3359C25.9073 32.9645 25.443 32.8716 24.8859 32.8716C24.6073 32.8716 24.4216 32.8716 24.143 32.9645C23.9573 33.0573 23.6787 33.1502 23.5859 33.3359C23.4001 33.5216 23.3073 33.7073 23.2144 33.893C23.1216 34.0787 23.0287 34.3573 23.0287 34.6359ZM36.3073 31.6645C36.7716 31.6645 37.143 31.7573 37.5144 31.8502C37.8859 32.0359 38.1644 32.2216 38.443 32.5002C38.7216 32.7787 38.9073 33.1502 39.093 33.5216C39.2787 33.893 39.3716 34.3573 39.3716 34.8216V35.7502C39.3716 36.2145 39.2787 36.6787 39.093 37.0502C38.9073 37.4216 38.7216 37.793 38.443 38.0716C38.1644 38.3502 37.8859 38.5359 37.5144 38.7216C37.143 38.9073 36.7716 38.9073 36.3073 38.9073C35.7501 38.9073 35.2859 38.8145 35.0073 38.6287C34.6359 38.443 34.4501 38.2573 34.2644 37.9787V38.443C34.2644 38.5359 34.2644 38.6287 34.1716 38.7216C34.0787 38.8145 33.9859 38.8145 33.893 38.8145H33.4287C33.3359 38.8145 33.243 38.8145 33.1501 38.7216C33.0573 38.6287 33.0573 38.5359 33.0573 38.443V29.6216C33.0573 29.5287 33.0573 29.4359 33.1501 29.343C33.243 29.2502 33.3359 29.2502 33.4287 29.2502H33.893C33.9859 29.2502 34.0787 29.2502 34.1716 29.343C34.2644 29.4359 34.2644 29.5287 34.2644 29.6216V32.593C34.4501 32.4073 34.7287 32.1287 35.0073 31.943C35.2859 31.7573 35.7501 31.6645 36.3073 31.6645ZM34.1716 35.843C34.1716 36.4002 34.4501 36.8645 34.7287 37.2359C35.0073 37.6073 35.5644 37.793 36.1216 37.793C36.6787 37.793 37.143 37.6073 37.5144 37.2359C37.8859 36.8645 38.0716 36.3073 38.0716 35.6573V34.9145C38.0716 34.2645 37.793 33.7073 37.5144 33.3359C37.2359 32.9645 36.6787 32.7787 36.1216 32.7787C35.5644 32.7787 35.1001 32.9645 34.7287 33.3359C34.3573 33.7073 34.1716 34.1716 34.1716 34.8216V35.843ZM40.0216 34.6359C40.0216 34.2645 40.1144 33.8002 40.3001 33.4287C40.4859 33.0573 40.6716 32.7787 40.9501 32.5002C41.2287 32.2216 41.5073 32.0359 41.8787 31.8502C42.2501 31.6645 42.6216 31.6645 43.0859 31.6645C43.5501 31.6645 44.0144 31.7573 44.3859 31.943C44.7573 32.1287 45.1287 32.3145 45.4073 32.593C45.6859 32.8716 45.8716 33.243 46.0573 33.7073C46.243 34.1716 46.243 34.6359 46.243 35.1002V35.4716C46.243 35.5645 46.243 35.6573 46.1501 35.7502C46.0573 35.843 45.9644 35.843 45.8716 35.843H41.2287V35.9359C41.2287 36.5859 41.4144 37.0502 41.7859 37.3287C42.1573 37.7002 42.6216 37.793 43.0859 37.793C43.5501 37.793 43.9216 37.7002 44.2001 37.6073C44.4787 37.5145 44.6644 37.3287 44.7573 37.143L44.943 36.9573C45.0359 36.8645 45.0359 36.9573 45.2216 36.9573H45.593C45.6859 36.9573 45.7787 36.9573 45.8716 37.0502C45.9644 37.143 45.9644 37.2359 45.9644 37.3287C45.9644 37.5145 45.8716 37.7002 45.7787 37.8859C45.6859 38.0716 45.5001 38.2573 45.2216 38.443C44.943 38.6287 44.6644 38.7216 44.293 38.9073C43.9216 39.093 43.5501 39.093 43.0859 39.093C42.6216 39.093 42.2501 39.0002 41.8787 38.8145C41.5073 38.6287 41.2287 38.443 40.9501 38.1645C40.6716 37.8859 40.4859 37.6073 40.3001 37.2359C40.1144 36.8645 40.0216 36.493 40.0216 36.0287C39.9287 35.4716 39.9287 35.0073 40.0216 34.6359ZM41.1359 34.6359H44.943C44.943 34.0787 44.7573 33.6145 44.3859 33.3359C44.0144 32.9645 43.5501 32.8716 42.993 32.8716C42.7144 32.8716 42.5287 32.8716 42.2501 32.9645C42.0644 33.0573 41.7859 33.1502 41.693 33.3359C41.5073 33.5216 41.4144 33.7073 41.3216 33.893C41.2287 34.0787 41.2287 34.3573 41.1359 34.6359ZM51.0716 36.8645C51.0716 36.6787 50.9787 36.5859 50.8859 36.4002C50.793 36.2145 50.6073 36.2145 50.4216 36.1216C50.2359 36.0287 49.9573 35.9359 49.6787 35.9359C49.4001 35.843 49.0287 35.7502 48.6573 35.7502C47.9144 35.5645 47.4501 35.3787 47.1716 35.0073C46.893 34.6359 46.7073 34.2645 46.7073 33.8002C46.7073 33.5216 46.8001 33.243 46.893 33.0573C46.9859 32.7787 47.1716 32.593 47.3573 32.4073C47.543 32.2216 47.8216 32.0359 48.193 31.943C48.5644 31.8502 48.9359 31.7573 49.3073 31.7573C49.6787 31.7573 50.143 31.8502 50.4216 31.943C50.793 32.0359 51.0716 32.1287 51.2573 32.3145C51.443 32.5002 51.6287 32.593 51.8144 32.7787C51.9073 32.9645 52.0001 33.1502 52.0001 33.243C52.0001 33.3359 52.0001 33.4287 51.9073 33.5216C51.8144 33.6145 51.7216 33.6145 51.6287 33.6145H50.9787C50.8859 33.6145 50.793 33.5216 50.793 33.4287C50.7001 33.243 50.5144 33.1502 50.2359 33.0573C49.9573 32.9645 49.6787 32.8716 49.3073 32.8716C48.9359 32.8716 48.5644 32.9645 48.2859 33.0573C48.0073 33.243 47.9144 33.4287 47.9144 33.7073C47.9144 33.893 47.9144 33.9859 48.0073 34.0787C48.1001 34.1716 48.193 34.2645 48.3787 34.3573C48.5644 34.4502 48.7501 34.543 49.0287 34.543C49.3073 34.6359 49.5859 34.7287 50.0501 34.7287C50.4216 34.8216 50.793 34.9145 51.0716 35.1002C51.3501 35.2859 51.5359 35.3787 51.7216 35.5645C51.9073 35.7502 52.0001 35.9359 52.093 36.1216C52.1859 36.3073 52.1859 36.5859 52.1859 36.7716C52.1859 37.0502 52.093 37.3287 52.0001 37.5145C51.9073 37.793 51.7216 37.9787 51.443 38.1645C51.1644 38.3502 50.8859 38.5359 50.5144 38.6287C50.143 38.7216 49.7716 38.8145 49.3073 38.8145C48.843 38.8145 48.4716 38.7216 48.1001 38.6287C47.7287 38.5359 47.4501 38.3502 47.2644 38.2573C46.9859 38.0716 46.8001 37.8859 46.7073 37.7002C46.6144 37.5145 46.5216 37.3287 46.5216 37.143C46.5216 37.0502 46.5216 36.9573 46.6144 36.8645C46.7073 36.7716 46.8001 36.7716 46.893 36.7716H47.543C47.6359 36.7716 47.6359 36.8645 47.7287 36.9573C47.9144 37.143 48.1001 37.3287 48.2859 37.4216C48.5644 37.5145 48.843 37.6073 49.3073 37.6073C49.493 37.6073 49.6787 37.6073 49.8644 37.5145C50.0501 37.5145 50.2359 37.4216 50.4216 37.3287C50.6073 37.2359 50.7001 37.143 50.793 37.0502C51.0716 37.143 51.0716 36.9573 51.0716 36.8645ZM55.0644 36.4002C55.0644 36.5859 55.0644 36.7716 55.1573 36.8645C55.1573 37.0502 55.2501 37.143 55.343 37.2359C55.4359 37.3287 55.5287 37.4216 55.7144 37.5145C55.9001 37.6073 56.0858 37.6073 56.2716 37.6073H57.0144C57.1073 37.6073 57.2001 37.6073 57.293 37.7002C57.3859 37.793 57.3859 37.8859 57.3859 37.9787V38.443C57.3859 38.5359 57.3859 38.6287 57.293 38.7216C57.2001 38.8145 57.1073 38.8145 57.0144 38.8145H56.1787C55.4359 38.8145 54.7859 38.6287 54.5073 38.1645C54.1359 37.793 53.9501 37.143 53.9501 36.4002V32.8716H52.9287C52.8359 32.8716 52.743 32.8716 52.6501 32.7787C52.5573 32.6859 52.5573 32.593 52.5573 32.5002V32.0359C52.5573 31.943 52.5573 31.8502 52.6501 31.7573C52.743 31.6645 52.8359 31.6645 52.9287 31.6645H53.8573V29.4359C53.8573 29.343 53.8573 29.2502 53.9501 29.1573C54.043 29.0645 54.1359 29.0645 54.2287 29.0645H54.7859C54.8787 29.0645 54.9716 29.0645 55.0644 29.1573C55.1573 29.2502 55.1573 29.343 55.1573 29.4359V31.6645H56.8287C56.9216 31.6645 57.0144 31.6645 57.1073 31.7573C57.2001 31.8502 57.2001 31.943 57.2001 32.0359V32.5002C57.2001 32.593 57.2001 32.6859 57.1073 32.7787C57.0144 32.8716 56.9216 32.8716 56.8287 32.8716H55.1573V36.4002H55.0644ZM68.2501 36.5859L69.7359 32.0359C69.7359 31.943 69.8287 31.8502 69.9216 31.8502C70.0144 31.7573 70.1073 31.7573 70.2001 31.7573H70.6644C70.7573 31.7573 70.8501 31.7573 70.8501 31.8502C70.943 31.943 70.943 32.0359 70.943 32.0359V32.1287L68.9001 38.3502C68.9001 38.443 68.8073 38.5359 68.7144 38.6287C68.6216 38.7216 68.5287 38.7216 68.4358 38.7216H67.9716C67.8787 38.7216 67.7859 38.7216 67.693 38.6287C67.6001 38.5359 67.6001 38.443 67.5073 38.3502L65.9287 33.893L64.3501 38.3502C64.3501 38.443 64.2573 38.5359 64.1644 38.6287C64.0716 38.7216 63.9787 38.7216 63.8859 38.7216H63.4216C63.3287 38.7216 63.2359 38.7216 63.143 38.6287C63.0501 38.5359 63.0501 38.443 62.9573 38.3502L60.9144 32.1287V32.0359C60.9144 31.943 60.9144 31.8502 61.0073 31.8502C61.1001 31.7573 61.1001 31.7573 61.193 31.7573H61.6573C61.7501 31.7573 61.9358 31.7573 61.9358 31.8502C62.0287 31.943 62.0287 32.0359 62.1216 32.0359L63.6073 36.5859L65.1858 32.0359C65.1858 31.943 65.2787 31.8502 65.2787 31.8502C65.3716 31.7573 65.4644 31.7573 65.5573 31.7573H65.8359C65.9287 31.7573 66.0216 31.7573 66.1144 31.8502C66.2073 31.943 66.2073 32.0359 66.2073 32.0359L68.2501 36.5859ZM70.8501 37.0502C70.8501 36.6787 70.943 36.4002 71.0359 36.1216C71.2216 35.843 71.4073 35.6573 71.593 35.4716C71.8716 35.2859 72.1501 35.1002 72.5216 35.0073C72.893 34.9145 73.1716 34.8216 73.6359 34.7287L75.493 34.4502V34.2645C75.493 33.8002 75.3073 33.4287 75.0287 33.243C74.7501 33.0573 74.3787 32.8716 73.9144 32.8716C73.543 32.8716 73.2644 32.9645 72.9858 33.0573C72.7073 33.1502 72.6144 33.3359 72.4287 33.6145L72.243 33.8002H71.593C71.5001 33.8002 71.4073 33.8002 71.3144 33.7073C71.2216 33.6145 71.2216 33.5216 71.2216 33.4287C71.2216 33.243 71.3144 33.0573 71.5001 32.7787L72.0573 32.2216C72.243 32.0359 72.6144 31.943 72.893 31.8502C73.1716 31.7573 73.543 31.6645 73.9144 31.6645C74.2859 31.6645 74.6573 31.7573 75.0287 31.8502C75.4001 31.943 75.6787 32.1287 75.9573 32.4073C76.2359 32.6859 76.4216 32.8716 76.5144 33.243C76.6073 33.6145 76.7001 33.9859 76.7001 34.3573V38.443C76.7001 38.5359 76.7001 38.6287 76.6073 38.7216C76.5144 38.8145 76.4216 38.8145 76.3287 38.8145H75.8644C75.7716 38.8145 75.6787 38.8145 75.5859 38.7216C75.493 38.6287 75.493 38.5359 75.493 38.443V37.8859C75.4001 38.0716 75.3073 38.1645 75.1216 38.3502C74.9359 38.443 74.7501 38.6287 74.5644 38.7216C74.3787 38.8145 74.1001 38.9073 73.9144 38.9073C73.6358 38.9073 73.4501 39.0002 73.2644 39.0002C72.893 39.0002 72.6144 38.9073 72.3359 38.8145C72.0573 38.7216 71.7787 38.6287 71.593 38.443C71.4073 38.2573 71.2216 38.0716 71.1287 37.8859C70.943 37.5145 70.8501 37.3287 70.8501 37.0502ZM73.3573 37.793C73.6358 37.793 74.0073 37.7002 74.2859 37.6073C74.5644 37.5145 74.7501 37.3287 74.9359 37.2359C75.1216 37.0502 75.3073 36.8645 75.4001 36.5859C75.493 36.3073 75.5859 36.0287 75.5859 35.7502V35.3787L74.0073 35.6573C73.4501 35.7502 72.9858 35.9359 72.6144 36.1216C72.243 36.3073 72.1501 36.5859 72.1501 36.8645C72.1501 36.9573 72.1501 37.0502 72.243 37.143C72.243 37.2359 72.3359 37.3287 72.4287 37.4216C72.5216 37.5145 72.6144 37.6073 72.8001 37.6073C72.893 37.7002 73.0787 37.793 73.3573 37.793ZM79.7644 41.043C79.7644 41.1359 79.6716 41.2287 79.6716 41.2287C79.5787 41.3216 79.4859 41.3216 79.393 41.3216H78.8359C78.743 41.3216 78.6501 41.3216 78.6501 41.2287C78.5573 41.1359 78.5573 41.043 78.5573 41.043V40.9502L79.8573 38.1645L77.1644 32.2216V32.1287C77.1644 32.0359 77.1644 31.943 77.2573 31.943C77.3501 31.8502 77.443 31.8502 77.443 31.8502H78.0001C78.093 31.8502 78.1859 31.8502 78.2787 31.943C78.3716 32.0359 78.3716 32.1287 78.3716 32.1287L80.4144 36.6787L82.5501 32.1287C82.5501 32.0359 82.643 31.943 82.643 31.943C82.7359 31.8502 82.8287 31.8502 82.9216 31.8502H83.5716C83.6644 31.8502 83.7573 31.8502 83.7573 31.943C83.8501 32.0359 83.8501 32.1287 83.8501 32.1287V32.2216L79.7644 41.043ZM89.7001 36.4002C89.7001 36.5859 89.7001 36.7716 89.793 36.8645C89.793 37.0502 89.8859 37.143 89.9787 37.2359C90.0716 37.3287 90.1644 37.4216 90.3501 37.5145C90.5359 37.6073 90.7216 37.6073 90.9073 37.6073H91.6501C91.743 37.6073 91.8359 37.6073 91.9287 37.7002C92.0216 37.793 92.0216 37.8859 92.0216 37.9787V38.443C92.0216 38.5359 92.0216 38.6287 91.9287 38.7216C91.8359 38.8145 91.743 38.8145 91.6501 38.8145H90.8144C90.0716 38.8145 89.4216 38.6287 89.143 38.1645C88.7716 37.793 88.5859 37.143 88.5859 36.4002V32.8716H87.5644C87.4716 32.8716 87.3787 32.8716 87.2859 32.7787C87.193 32.6859 87.193 32.593 87.193 32.5002V32.0359C87.193 31.943 87.193 31.8502 87.2859 31.7573C87.3787 31.6645 87.4716 31.6645 87.5644 31.6645H88.5859V29.4359C88.5859 29.343 88.5859 29.2502 88.6787 29.1573C88.7716 29.0645 88.8644 29.0645 88.9573 29.0645H89.4216C89.5144 29.0645 89.6073 29.0645 89.7001 29.1573C89.793 29.2502 89.793 29.343 89.793 29.4359V31.6645H91.4644C91.5573 31.6645 91.6501 31.6645 91.743 31.7573C91.8359 31.8502 91.8359 31.943 91.8359 32.0359V32.5002C91.8359 32.593 91.8359 32.6859 91.743 32.7787C91.6501 32.8716 91.5573 32.8716 91.4644 32.8716H89.793V36.4002H89.7001ZM95.643 31.6645C96.1073 31.6645 96.5716 31.7573 96.943 31.8502C97.3144 32.0359 97.6859 32.2216 97.8716 32.5002C98.1501 32.7787 98.3359 33.0573 98.5216 33.4287C98.7073 33.8002 98.8001 34.1716 98.8001 34.6359V35.9359C98.8001 36.4002 98.6144 36.7716 98.5216 37.143C98.4287 37.5145 98.1501 37.793 97.8716 38.0716C97.593 38.3502 97.3144 38.5359 96.943 38.7216C96.5716 38.9073 96.1073 38.9073 95.643 38.9073C95.1787 38.9073 94.7144 38.8145 94.343 38.7216C93.9716 38.5359 93.6001 38.3502 93.4144 38.0716C93.2287 37.793 92.9501 37.5145 92.7644 37.143C92.5787 36.7716 92.4858 36.4002 92.4858 35.9359V35.6573V35.2859V34.9145V34.6359C92.4858 34.1716 92.5787 33.8002 92.7644 33.4287C92.9501 33.0573 93.1358 32.7787 93.4144 32.5002C93.693 32.2216 93.9716 32.0359 94.343 31.8502C94.7144 31.7573 95.1787 31.6645 95.643 31.6645ZM97.593 35.843V35.2859V34.7287C97.593 34.4502 97.5001 34.1716 97.4073 33.9859C97.3144 33.8002 97.2216 33.5216 97.0359 33.3359C96.8501 33.1502 96.6644 33.0573 96.4787 32.9645C96.2001 32.8716 96.0144 32.7787 95.643 32.7787C95.3644 32.7787 95.0859 32.8716 94.8073 32.9645C94.5287 33.0573 94.343 33.243 94.2501 33.3359C94.0644 33.5216 93.9716 33.7073 93.8787 33.9859C93.7859 34.2645 93.693 34.4502 93.693 34.7287V35.843C93.693 36.1216 93.7859 36.4002 93.8787 36.5859C93.9716 36.7716 94.0644 37.0502 94.2501 37.2359C94.4359 37.4216 94.6216 37.5145 94.8073 37.6073C95.0859 37.7002 95.2716 37.793 95.643 37.793C95.9216 37.793 96.2001 37.7002 96.4787 37.6073C96.7573 37.5145 96.943 37.3287 97.0359 37.2359C97.2216 37.0502 97.3144 36.8645 97.4073 36.5859C97.5001 36.3073 97.593 36.1216 97.593 35.843ZM110.129 36.5859L111.614 32.0359C111.614 31.943 111.707 31.8502 111.8 31.8502C111.893 31.7573 111.986 31.7573 112.079 31.7573H112.543C112.636 31.7573 112.729 31.7573 112.729 31.8502C112.822 31.943 112.822 32.0359 112.822 32.0359V32.1287L110.779 38.3502C110.779 38.443 110.686 38.5359 110.593 38.6287C110.5 38.7216 110.407 38.7216 110.314 38.7216H109.85C109.757 38.7216 109.664 38.7216 109.572 38.6287C109.479 38.5359 109.479 38.443 109.386 38.3502L107.807 33.893L106.229 38.3502C106.229 38.443 106.136 38.5359 106.043 38.6287C105.95 38.7216 105.857 38.7216 105.764 38.7216H105.3C105.207 38.7216 105.114 38.7216 105.022 38.6287C104.929 38.5359 104.929 38.443 104.836 38.3502L102.793 32.1287V32.0359C102.793 31.943 102.793 31.8502 102.886 31.8502C102.979 31.7573 103.072 31.7573 103.072 31.7573H103.536C103.629 31.7573 103.814 31.7573 103.814 31.8502C103.907 31.943 103.907 32.0359 104 32.0359L105.486 36.5859L107.064 32.0359C107.064 31.943 107.157 31.8502 107.157 31.8502C107.25 31.7573 107.343 31.7573 107.436 31.7573H107.714C107.807 31.7573 107.9 31.7573 107.993 31.8502C108.086 31.943 108.086 32.0359 108.086 32.0359L110.129 36.5859ZM114.864 30.3645C114.864 30.4573 114.864 30.5502 114.772 30.643C114.679 30.7359 114.586 30.7359 114.493 30.7359H113.75C113.657 30.7359 113.564 30.7359 113.472 30.643C113.379 30.5502 113.379 30.4573 113.379 30.3645V29.6216C113.379 29.5287 113.379 29.4359 113.472 29.343C113.564 29.2502 113.657 29.2502 113.75 29.2502H114.493C114.586 29.2502 114.679 29.2502 114.772 29.343C114.864 29.4359 114.864 29.5287 114.864 29.6216V30.3645ZM114.772 38.443C114.772 38.5359 114.772 38.6287 114.679 38.7216C114.586 38.8145 114.493 38.8145 114.4 38.8145H113.936C113.843 38.8145 113.75 38.8145 113.657 38.7216C113.564 38.6287 113.564 38.5359 113.564 38.443V32.1287C113.564 32.0359 113.564 31.943 113.657 31.8502C113.75 31.7573 113.843 31.7573 113.936 31.7573H114.4C114.493 31.7573 114.586 31.7573 114.679 31.8502C114.772 31.943 114.772 32.0359 114.772 32.1287V38.443ZM121.922 38.443C121.922 38.5359 121.922 38.6287 121.829 38.7216C121.736 38.8145 121.643 38.8145 121.55 38.8145H121.086C120.993 38.8145 120.9 38.8145 120.807 38.7216C120.714 38.6287 120.714 38.5359 120.714 38.443V34.9145C120.714 34.2645 120.529 33.7073 120.25 33.3359C119.879 32.9645 119.414 32.7787 118.857 32.7787C118.3 32.7787 117.836 32.9645 117.464 33.3359C117.093 33.7073 116.907 34.1716 116.907 34.9145V38.443C116.907 38.5359 116.907 38.6287 116.814 38.7216C116.722 38.8145 116.629 38.8145 116.536 38.8145H116.072C115.979 38.8145 115.886 38.8145 115.793 38.7216C115.7 38.6287 115.7 38.5359 115.7 38.443V32.1287C115.7 32.0359 115.7 31.943 115.793 31.8502C115.886 31.7573 115.979 31.7573 116.072 31.7573H116.536C116.629 31.7573 116.722 31.7573 116.814 31.8502C116.907 31.943 116.907 32.0359 116.907 32.1287V32.593C117.093 32.4073 117.372 32.1287 117.65 31.943C118.022 31.7573 118.393 31.6645 118.95 31.6645C119.414 31.6645 119.786 31.7573 120.157 31.8502C120.529 31.943 120.807 32.2216 121.086 32.4073C121.364 32.6859 121.55 32.9645 121.643 33.3359C121.829 33.7073 121.829 34.1716 121.829 34.6359V38.443H121.922Z" fill="white"/>
</g>
<defs>
<clipPath id="clip0_4_10">
<rect width="130" height="41.7857" fill="white"/>
</clipPath>
</defs>
</svg>
