<svg width="41" height="40" viewBox="0 0 41 40" fill="none" xmlns="http://www.w3.org/2000/svg">
<rect x="0.5" width="40" height="40" rx="20" fill="white"/>
<path d="M24.875 10H16.125C15.0898 10 14.25 10.8398 14.25 11.875V28.125C14.25 29.1602 15.0898 30 16.125 30H24.875C25.9102 30 26.75 29.1602 26.75 28.125V11.875C26.75 10.8398 25.9102 10 24.875 10ZM20.5 28.75C19.8086 28.75 19.25 28.1914 19.25 27.5C19.25 26.8086 19.8086 26.25 20.5 26.25C21.1914 26.25 21.75 26.8086 21.75 27.5C21.75 28.1914 21.1914 28.75 20.5 28.75Z" fill="#1B273F"/>
</svg>
