<svg width="70" height="70" viewBox="0 0 70 70" fill="none" xmlns="http://www.w3.org/2000/svg">
<g clip-path="url(#clip0_147_199)">
<g filter="url(#filter0_d_147_199)">
<path fill-rule="evenodd" clip-rule="evenodd" d="M34.3344 15.2101C33.3462 15.7608 15.5579 26.7546 15.3663 26.933C14.9543 27.3166 14.8959 28.0254 15.2403 28.4633C15.6097 28.9329 14.0905 28.8994 34.9985 28.8994C55.9064 28.8994 54.3872 28.9329 54.7566 28.4633C55.1009 28.0254 55.0427 27.3174 54.6306 26.9322C54.4216 26.7368 36.1612 15.46 35.5434 15.1448C35.1298 14.9337 34.798 14.9517 34.3344 15.2101ZM36.3257 22.0441C37.1132 22.4606 37.1602 23.5339 36.4128 24.0333C36.167 24.1975 36.0628 24.2107 35.0064 24.2104C34.0059 24.2101 33.8342 24.191 33.6109 24.0548C32.8328 23.5803 32.8661 22.4699 33.6713 22.0441C33.9698 21.8862 34.118 21.8663 34.9985 21.8663C35.8789 21.8663 36.0271 21.8862 36.3257 22.0441ZM17.8223 32.0984C17.8475 32.9163 17.8583 32.9632 18.0727 33.1868C18.196 33.3153 18.3894 33.4586 18.5024 33.5052C18.6486 33.5655 23.4641 33.5841 35.1339 33.5695L51.1436 33.5496C51.1462 33.5496 51.1475 33.5496 51.1488 33.5496C51.4118 33.5486 51.6638 33.444 51.8502 33.2586C51.8511 33.2577 51.852 33.2568 51.8539 33.2549C51.8676 33.2413 51.8744 33.2345 51.8809 33.2277C52.0487 33.0536 52.1477 32.8246 52.1597 32.5831C52.1601 32.5738 52.1604 32.5642 52.161 32.5449L52.1746 32.1023C52.1891 31.6325 51.8122 31.2438 51.3422 31.2438H34.9985H18.6509C18.183 31.2438 17.8078 31.6308 17.8223 32.0984ZM19.3723 41.5578V45.1855C19.3723 46.1283 19.3723 46.5997 19.6652 46.8926C19.9581 47.1855 20.4295 47.1855 21.3723 47.1855H21.7167H22.054C22.9999 47.1855 23.4728 47.1855 23.7659 46.8913C24.059 46.5971 24.0574 46.1242 24.054 45.1783L24.0411 41.5785L24.0281 37.9467C24.0248 37.0146 24.0231 36.5486 23.7336 36.2575C23.4441 35.9664 22.978 35.9623 22.046 35.954L21.6967 35.9509L21.3901 35.9481C20.4396 35.9397 19.9644 35.9354 19.6683 36.2289C19.3723 36.5223 19.3723 36.9975 19.3723 37.9481V41.5578ZM28.2011 41.559V45.1855C28.2011 46.1283 28.2011 46.5997 28.494 46.8926C28.7869 47.1855 29.2583 47.1855 30.2011 47.1855H30.545H30.8889C31.8317 47.1855 32.3031 47.1855 32.596 46.8926C32.8889 46.5997 32.8889 46.1283 32.8889 45.1855V41.559V37.9325C32.8889 36.9897 32.8889 36.5183 32.596 36.2254C32.3031 35.9325 31.8317 35.9325 30.8889 35.9325H30.545H30.2011C29.2583 35.9325 28.7869 35.9325 28.494 36.2254C28.2011 36.5183 28.2011 36.9897 28.2011 37.9325V41.559ZM37.108 41.559V45.1855C37.108 46.1283 37.108 46.5997 37.4009 46.8926C37.6938 47.1855 38.1652 47.1855 39.108 47.1855H39.4519H39.7959C40.7387 47.1855 41.2101 47.1855 41.503 46.8926C41.7959 46.5997 41.7959 46.1283 41.7959 45.1855V41.559V37.9325C41.7959 36.9897 41.7959 36.5183 41.503 36.2254C41.2101 35.9325 40.7387 35.9325 39.7959 35.9325H39.4519H39.108C38.1652 35.9325 37.6938 35.9325 37.4009 36.2254C37.108 36.5183 37.108 36.9897 37.108 37.9325V41.559ZM45.9889 35.9846C45.9602 36.0132 45.9368 38.5451 45.9368 41.6111V45.1855C45.9368 46.1283 45.9368 46.5997 46.2297 46.8926C46.5226 47.1855 46.994 47.1855 47.9368 47.1855H48.2807H48.6247C49.5675 47.1855 50.0389 47.1855 50.3318 46.8926C50.6247 46.5997 50.6247 46.1283 50.6247 45.1855V41.559V37.9325C50.6247 36.9897 50.6247 36.5183 50.3318 36.2254C50.0389 35.9325 49.5675 35.9325 48.6247 35.9325H48.3328C47.0723 35.9325 46.0175 35.9559 45.9889 35.9846ZM15.5902 49.7154C15.0353 50.0514 15.0039 50.186 15.0002 52.2485C14.9965 54.3317 15.0373 54.5057 15.605 54.8248C15.6879 54.8714 15.7293 54.8947 15.7721 54.9137C15.8713 54.9578 15.977 54.9855 16.085 54.9956C16.1316 55 16.1792 55 16.2742 55H34.9927C53.957 55 54.0705 54.9991 54.377 54.8427C54.5755 54.7414 54.7415 54.5754 54.8427 54.3769C54.9869 54.0941 55 53.9183 55 52.2649C55 50.6115 54.9869 50.4357 54.8427 50.153C54.7415 49.9544 54.5755 49.7884 54.377 49.6871C54.0705 49.5308 53.9574 49.5298 34.9821 49.5302L16.2523 49.5306C16.1752 49.5306 16.1366 49.5306 16.0988 49.5335C15.9679 49.5434 15.8401 49.5791 15.7229 49.6384C15.6891 49.6555 15.6561 49.6755 15.5902 49.7154Z" fill="url(#paint0_linear_147_199)"/>
</g>
</g>
<defs>
<filter id="filter0_d_147_199" x="0" y="5" width="70" height="70" filterUnits="userSpaceOnUse" color-interpolation-filters="sRGB">
<feFlood flood-opacity="0" result="BackgroundImageFix"/>
<feColorMatrix in="SourceAlpha" type="matrix" values="0 0 0 0 0 0 0 0 0 0 0 0 0 0 0 0 0 0 127 0" result="hardAlpha"/>
<feOffset dy="5"/>
<feGaussianBlur stdDeviation="7.5"/>
<feComposite in2="hardAlpha" operator="out"/>
<feColorMatrix type="matrix" values="0 0 0 0 0.886275 0 0 0 0 0.643137 0 0 0 0 0.2 0 0 0 0.2 0"/>
<feBlend mode="normal" in2="BackgroundImageFix" result="effect1_dropShadow_147_199"/>
<feBlend mode="normal" in="SourceGraphic" in2="effect1_dropShadow_147_199" result="shape"/>
</filter>
<linearGradient id="paint0_linear_147_199" x1="30.4043" y1="5.71429" x2="57.0054" y2="15.1075" gradientUnits="userSpaceOnUse">
<stop stop-color="#FFCB6C"/>
<stop offset="1" stop-color="#E2A433"/>
</linearGradient>
<clipPath id="clip0_147_199">
<rect width="70" height="70" fill="white"/>
</clipPath>
</defs>
</svg>
