<svg width="70" height="70" viewBox="0 0 70 70" fill="none" xmlns="http://www.w3.org/2000/svg">
<g clip-path="url(#clip0_147_203)">
<g filter="url(#filter0_d_147_203)">
<path fill-rule="evenodd" clip-rule="evenodd" d="M10 24.1993V28.3985H10.8436H11.6871V26.8278V25.2569L12.9414 25.2336C13.8529 25.2166 14.2806 25.191 14.5064 25.1399C15.3982 24.9381 16.0966 24.2642 16.3285 23.3815C16.4302 22.9945 16.4326 22.2141 16.3332 21.8276C16.1081 20.9519 15.434 20.2782 14.5952 20.0904C14.4556 20.0591 13.5626 20.0331 12.1866 20.0203L10 20V24.1993ZM19.2752 20.1293C19.2395 20.2237 16.1894 28.1007 16.0947 28.343C16.0778 28.3863 16.2718 28.3985 16.9769 28.3984L17.8807 28.3983L18.1414 27.6769C18.2847 27.2802 18.441 26.8507 18.4887 26.7225L18.5753 26.4894H20.2333H21.8913L22.1105 27.0555C22.231 27.3668 22.3951 27.7964 22.4753 28.01L22.6209 28.3985H23.5471H24.4732L24.4079 28.232C24.3581 28.1046 21.2606 20.3215 21.1567 20.0627C21.1399 20.0209 20.9117 20.0072 20.228 20.0072H19.3214L19.2752 20.1293ZM23.4527 20.0291C23.4527 20.0411 24.132 21.1295 24.9622 22.4479L26.4718 24.8447V26.6217V28.3985H27.3376H28.2033V26.6277V24.8568L29.5755 22.6807C30.3301 21.4838 31.0192 20.3927 31.1066 20.2559L31.2657 20.0072L30.2784 20.0083L29.2911 20.0093L28.3438 21.651C27.8227 22.5539 27.3903 23.2927 27.3828 23.2927C27.3753 23.2927 26.9325 22.5539 26.3988 21.6509L25.4284 20.009L24.4406 20.0081C23.8972 20.0076 23.4527 20.017 23.4527 20.0291ZM32.1104 24.2029V28.3985H35.3071H38.5037V27.6882V26.9778H36.1506H33.7975V25.8456V24.7135H35.9064H38.0154V24.0031V23.2927H35.9064H33.7975V22.3604V21.428H36.0618H38.3262V20.7176V20.0072H35.2183H32.1104V24.2029ZM39.8801 24.2029V28.3985H43.0768H46.2735V27.6882V26.9778H43.9203H41.5672V25.8456V24.7135H43.6762H45.7851V24.0031V23.2927H43.6762H41.5672V22.3604V21.428H43.8316H46.0959V20.7176V20.0072H42.988H39.8801V24.2029ZM47.6942 24.1998V28.3985H48.5378H49.3813V26.6448V24.8911L49.681 24.8919C50.089 24.8931 50.5559 24.965 50.7256 25.0528C50.9988 25.1941 51.323 25.6083 52.245 26.9941L53.1774 28.3954L54.1875 28.397C54.743 28.3978 55.1975 28.3868 55.1975 28.3724C55.1975 28.3251 53.9154 26.2844 53.6619 25.9282C53.3491 25.4886 53.0343 25.162 52.6723 24.9014L52.3892 24.6977L52.7327 24.6166C53.4214 24.4541 54.0341 24.0141 54.2845 23.5023C54.464 23.1355 54.5305 22.8267 54.5305 22.3604C54.5305 21.186 53.9107 20.3704 52.8222 20.1124C52.5585 20.0499 52.1464 20.0358 50.1028 20.0199L47.6942 20.0011V24.1998ZM13.8198 21.514C14.0965 21.5952 14.3805 21.8085 14.5136 22.035C14.624 22.2227 14.6395 22.2936 14.6389 22.6045C14.6383 22.8819 14.6172 22.9986 14.5428 23.1373C14.42 23.3664 14.1949 23.5808 13.9855 23.6681C13.7574 23.7633 13.122 23.8238 12.342 23.8247L11.6871 23.8255V22.6201V21.4147L12.675 21.4413C13.2183 21.456 13.7335 21.4887 13.8198 21.514ZM52.2006 21.5327C52.4743 21.6519 52.6607 21.8594 52.7405 22.1339C52.8827 22.623 52.7123 23.1399 52.3364 23.3602C52.0918 23.5035 51.5273 23.5573 50.2582 23.5584L49.3813 23.5591V22.4888V21.4184L50.7022 21.4369C51.8329 21.4527 52.0486 21.4665 52.2006 21.5327ZM20.7942 23.5591L21.3532 25.0687H20.2227C19.3369 25.0687 19.0966 25.0566 19.1126 25.0132C19.1239 24.9827 19.3693 24.3034 19.6578 23.5036C19.9464 22.7039 20.1944 22.0496 20.2088 22.0496C20.2233 22.0496 20.4867 22.7289 20.7942 23.5591ZM56.9735 23.8378C56.5623 23.9784 56.2785 24.157 55.9862 24.4592C55.393 25.0722 55.192 25.9847 55.4674 26.8145C55.7093 27.5434 56.3741 28.1565 57.1108 28.3302C58.1013 28.5636 59.096 28.1651 59.6457 27.3147C60.0823 26.6391 60.1184 25.7107 59.7372 24.9581C59.5836 24.6546 59.1085 24.1744 58.7986 24.0092C58.2548 23.7194 57.5209 23.6504 56.9735 23.8378ZM58.0168 24.0916C58.8248 24.2237 59.5095 24.9216 59.6365 25.7424C59.6958 26.1251 59.632 26.5896 59.4739 26.9257C59.317 27.2594 58.8533 27.7217 58.5052 27.8913C58.2541 28.0137 58.2069 28.0211 57.6838 28.0211C57.1513 28.0211 57.1167 28.0154 56.8281 27.8787C55.974 27.4741 55.5124 26.4814 55.7487 25.557C55.9305 24.8454 56.5246 24.2686 57.2399 24.1093C57.5489 24.0405 57.6854 24.0374 58.0168 24.0916ZM56.7404 24.7833C56.7221 24.8019 56.7071 25.3831 56.7071 26.075V27.333H56.9513H57.1955V26.816V26.299L57.5509 26.3287C58.1362 26.3775 58.2198 26.4541 58.2586 26.9778L58.2832 27.3108L58.4998 27.3245L58.7164 27.3383L58.6969 26.9659C58.6745 26.5397 58.5731 26.3221 58.3454 26.2119L58.2084 26.1455L58.3761 26.0622C58.6276 25.9372 58.7249 25.7772 58.7209 25.4954C58.7165 25.1877 58.6066 25.005 58.3508 24.8795C58.1754 24.7936 58.063 24.7791 57.4618 24.7653C57.0834 24.7566 56.7587 24.7647 56.7404 24.7833ZM58.086 25.181C58.2263 25.2535 58.261 25.3268 58.261 25.5508C58.261 25.8789 58.0543 26.0003 57.4951 26.0008L57.1955 26.001V25.5287V25.0564L57.5808 25.0877C57.7927 25.1049 58.02 25.1469 58.086 25.181Z" fill="url(#paint0_linear_147_203)"/>
</g>
<g filter="url(#filter1_d_147_203)">
<path fill-rule="evenodd" clip-rule="evenodd" d="M17.6281 38.6351C17.5531 38.6424 17.3155 38.665 17.1 38.6854C15.6165 38.8251 14.0029 39.2851 12.8457 39.8983C12.1337 40.2755 11.6192 40.6482 11.1375 41.1356C10.6187 41.6604 10.2847 42.2005 10.094 42.8228C10.0081 43.1031 10 43.1764 10 43.6747C10 44.1701 10.0084 44.2471 10.0919 44.5189C10.3124 45.2368 10.7825 45.9272 11.444 46.5044C11.8538 46.8619 11.8854 46.8705 11.6723 46.5664C11.4309 46.2218 11.1592 45.6619 11.0629 45.3102C10.9994 45.0783 10.9882 44.9486 10.9879 44.4413C10.9876 43.8877 10.9943 43.8231 11.0812 43.5384C11.2837 42.8745 11.6599 42.2609 12.1986 41.7161C14.3344 39.5556 18.5824 38.6539 22.381 39.5547C23.8924 39.9131 25.1715 40.5217 26.1598 41.3524C26.5346 41.6674 26.4789 41.5612 26.0382 41.1205C24.9622 40.0444 23.293 39.2537 21.2567 38.8554C20.4322 38.6942 19.8871 38.6448 18.8035 38.633C18.232 38.6268 17.703 38.6277 17.6281 38.6351ZM33.8461 39.3087C33.4263 39.415 33.1952 39.6279 33.0916 40.004C33.032 40.2201 33.0284 40.4252 33.0284 43.5725V46.9116L33.1037 47.1509C33.1905 47.4269 33.3561 47.6425 33.5686 47.7561C33.6898 47.8209 33.7628 47.8316 34.0846 47.8316C34.4063 47.8316 34.4793 47.8209 34.6005 47.7561C34.7957 47.6518 34.97 47.4362 35.0595 47.1887C35.129 46.9962 35.1361 46.9045 35.1495 46.0214L35.164 45.0631L36.1746 45.0442C37.2297 45.0245 37.4978 44.9948 37.9428 44.8483C38.6065 44.6299 39.1455 44.2224 39.4639 43.6983C39.7581 43.2139 39.9072 42.4295 39.8286 41.7803C39.7411 41.0584 39.5529 40.6577 39.0762 40.1778C38.7801 39.8798 38.7145 39.8323 38.3595 39.659C38.1228 39.5435 37.8277 39.432 37.611 39.3762L37.2532 39.284L35.6348 39.2748C34.4158 39.2679 33.9744 39.2763 33.8461 39.3087ZM36.7081 41.1114C37.2559 41.2673 37.5112 41.5878 37.5123 42.1212C37.5131 42.4605 37.4684 42.6278 37.3278 42.8122C37.069 43.1515 36.7658 43.2448 35.8307 43.2729L35.1578 43.2931V42.1589V41.0248L35.8478 41.0439C36.2859 41.056 36.5999 41.0806 36.7081 41.1114ZM15.0387 41.2521C14.1463 41.4016 13.4478 41.807 12.9044 42.4909C12.4129 43.1094 12.1915 43.7639 12.1913 44.5987C12.1912 45.2731 12.339 45.8101 12.664 46.316C13.1558 47.0815 13.9811 47.6487 14.8925 47.8474C15.4025 47.9586 16.237 47.9503 16.8444 47.828C17.2642 47.7434 17.8061 47.5546 18.0827 47.3966C18.4365 47.1944 18.7822 46.8252 18.8563 46.5704C18.9928 46.1007 18.7736 45.7302 18.3009 45.6321C18.0682 45.5838 17.9321 45.6164 17.2215 45.891C16.5589 46.147 16.2784 46.2132 15.8594 46.2127C15.2946 46.2121 14.9067 46.0683 14.6184 45.7528C14.4606 45.5802 14.3402 45.3344 14.3402 45.1849C14.3402 45.1256 14.4216 45.1228 16.1375 45.1225C17.2184 45.1224 18.0218 45.1081 18.1533 45.0868C18.6168 45.0116 18.924 44.7769 19.0282 44.4183C19.0776 44.2484 19.08 44.1794 19.0459 43.9022C18.8995 42.7103 17.8974 41.6547 16.593 41.318C16.1847 41.2126 15.4579 41.1818 15.0387 41.2521ZM22.3558 41.2408C21.5041 41.3232 20.7709 41.6551 20.217 42.209C19.7834 42.6427 19.5298 43.0974 19.3749 43.7194C19.2742 44.1235 19.267 44.9737 19.3608 45.3783C19.4999 45.9782 19.7494 46.4569 20.1465 46.8857C20.5508 47.3223 21.0851 47.6347 21.7167 47.8039C22.029 47.8876 22.1128 47.8954 22.7218 47.8975C23.4058 47.8998 23.5816 47.8784 24.0165 47.7395C24.5007 47.5849 24.8986 47.3188 25.0624 47.0401C25.312 46.6153 25.0747 46.0223 24.5997 45.8842C24.3701 45.8174 24.1838 45.8395 23.7469 45.9851C23.4415 46.0868 23.389 46.0939 22.9414 46.0939H22.4626L22.2026 45.9654C21.6779 45.706 21.4261 45.2391 21.4276 44.5288C21.4289 43.8863 21.7173 43.3444 22.1829 43.1093C22.5738 42.9119 23.111 42.9135 23.7135 43.1137C24.2902 43.3053 24.605 43.284 24.8889 43.034C25.0868 42.8598 25.1733 42.6767 25.1738 42.431C25.1753 41.7813 24.5051 41.3525 23.311 41.2393C22.9039 41.2007 22.7683 41.2009 22.3558 41.2408ZM28.0182 41.2521C26.8951 41.4657 26.0406 42.0938 25.5671 43.0538C25.3256 43.5433 25.2352 43.9448 25.2315 44.5435C25.2298 44.8278 25.247 45.1245 25.272 45.2421C25.5259 46.4339 26.2991 47.3361 27.4054 47.7316C27.8912 47.9052 28.2909 47.9609 28.9057 47.9407C29.932 47.9068 30.6837 47.5914 31.3285 46.9239C31.8665 46.3669 32.1501 45.7382 32.2264 44.9329C32.3281 43.8594 31.9916 42.8835 31.2715 42.1633C30.8486 41.7403 30.3794 41.4745 29.7749 41.3155C29.5022 41.2437 29.3564 41.2283 28.8546 41.2183C28.4513 41.2103 28.1807 41.2212 28.0182 41.2521ZM42.5211 41.289C41.6513 41.4858 41.0196 41.931 40.4958 42.7163C40.3176 42.9834 40.1611 43.3399 40.0554 43.7198C39.9931 43.9432 39.9827 44.0708 39.9834 44.5947C39.9841 45.1113 39.9955 45.249 40.0559 45.4685C40.2216 46.0702 40.5216 46.5913 40.9507 47.0225C41.3691 47.443 41.8132 47.6919 42.4055 47.838C42.7294 47.9179 43.4777 47.9166 43.7779 47.8357C44.0903 47.7514 44.4477 47.5681 44.6578 47.3843C44.7566 47.2979 44.8418 47.2329 44.8472 47.2398C44.8527 47.2467 44.9061 47.3248 44.9658 47.4133C45.0817 47.5847 45.2885 47.7446 45.478 47.8092C45.5418 47.8309 45.7104 47.8483 45.8528 47.8479C46.2602 47.8467 46.5263 47.6953 46.6895 47.3716C46.8593 47.0351 46.8614 47.0005 46.8614 44.5606C46.8614 42.3013 46.8606 42.2752 46.7862 42.0392C46.6857 41.7201 46.5453 41.5364 46.3164 41.4244C45.9503 41.2453 45.5018 41.2881 45.1663 41.5344C45.0773 41.5997 45.0039 41.6633 45.0033 41.6758C45.0026 41.6882 44.9652 41.7434 44.9202 41.7985L44.8385 41.8985L44.6894 41.761C44.4934 41.5805 44.2754 41.4552 43.9732 41.3496C43.7631 41.2762 43.6541 41.2617 43.2328 41.2516C42.8865 41.2433 42.6736 41.2545 42.5211 41.289ZM47.8053 41.3711C47.2653 41.5577 47.0207 42.0835 47.2157 42.6386C47.2513 42.7399 47.7419 43.8022 48.306 44.9993C48.87 46.1963 49.3316 47.1883 49.3316 47.2036C49.3316 47.219 49.1189 47.6596 48.859 48.1828C48.3558 49.1959 48.2884 49.3931 48.344 49.6897C48.4051 50.016 48.5277 50.1874 48.7994 50.3265C49.0521 50.4559 49.4683 50.4771 49.6862 50.3716C49.8924 50.2718 50.1111 50.0219 50.2594 49.7167C50.3868 49.4546 53.4466 42.8551 53.5136 42.6979C53.6397 42.402 53.6314 41.9856 53.4939 41.7165C53.3144 41.3652 52.6117 41.1955 52.2021 41.4044C52.0281 41.4932 51.8441 41.7005 51.7228 41.9444C51.6689 42.0528 51.3517 42.7898 51.0178 43.5822C50.6839 44.3747 50.3995 45.011 50.3858 44.9963C50.372 44.9815 50.0728 44.2743 49.7208 43.4247C49.3689 42.5751 49.0383 41.8129 48.9864 41.731C48.7523 41.3618 48.2635 41.2128 47.8053 41.3711ZM54.8511 41.4097C54.2322 41.4806 53.9194 41.7242 53.8733 42.1714C53.8332 42.5596 54.0275 42.8538 54.4293 43.0135C54.6216 43.0899 54.6761 43.0939 55.7856 43.1113L56.9415 43.1295L55.5176 44.7991C54.7344 45.7174 54.0488 46.5377 53.994 46.622C53.6686 47.1228 53.7714 47.5404 54.2583 47.6961C54.4447 47.7557 54.6153 47.7613 56.6058 47.7723C58.0418 47.7803 58.8482 47.7718 59.0419 47.7466C59.7099 47.6599 60.0274 47.3527 59.9895 46.8296C59.9717 46.5828 59.8751 46.396 59.6933 46.2566C59.4135 46.0421 59.3304 46.0307 57.9431 46.0168C57.2544 46.0099 56.691 45.9975 56.691 45.9894C56.691 45.9812 57.3476 45.2082 58.1502 44.2714C59.0978 43.1655 59.6435 42.501 59.7065 42.3765C59.8823 42.029 59.8529 41.6997 59.6333 41.5558C59.4167 41.4138 59.2197 41.4009 57.1169 41.3905C56.0113 41.385 54.9917 41.3936 54.8511 41.4097ZM16.2882 42.8805C16.3946 42.9298 16.554 43.0366 16.6426 43.1179C16.8154 43.2766 16.9977 43.6105 16.9977 43.7684L16.9978 43.8621H15.6483H14.2987L14.321 43.7684C14.3966 43.4511 14.6801 43.0821 14.9581 42.9391C15.2311 42.7989 15.3627 42.7722 15.7371 42.7818C16.0397 42.7896 16.1247 42.8048 16.2882 42.8805ZM29.1272 43.0476C29.3561 43.106 29.6004 43.2775 29.7564 43.4894C30.3697 44.3226 30.1364 45.6442 29.3049 46.0458C29.0608 46.1638 28.5372 46.1788 28.2584 46.0759C27.8918 45.9406 27.5274 45.4919 27.4257 45.0508C27.3764 44.8369 27.3824 44.2497 27.4359 44.0495C27.6523 43.2406 28.324 42.8427 29.1272 43.0476ZM43.7963 43.0969C44.1363 43.185 44.387 43.3879 44.5522 43.7087C44.6852 43.9669 44.7311 44.1856 44.7311 44.5606C44.7311 44.748 44.7106 44.978 44.6855 45.0717C44.5762 45.4805 44.3214 45.816 43.9994 45.9754C43.848 46.0503 43.7854 46.0597 43.4372 46.0598C43.0555 46.0598 43.0398 46.0568 42.8298 45.9429C42.4837 45.7553 42.2494 45.4248 42.1585 44.996C41.9007 43.7793 42.7279 42.8202 43.7963 43.0969Z" fill="url(#paint1_linear_147_203)"/>
</g>
</g>
<defs>
<filter id="filter0_d_147_203" x="-25" y="0" width="120" height="78.3984" filterUnits="userSpaceOnUse" color-interpolation-filters="sRGB">
<feFlood flood-opacity="0" result="BackgroundImageFix"/>
<feColorMatrix in="SourceAlpha" type="matrix" values="0 0 0 0 0 0 0 0 0 0 0 0 0 0 0 0 0 0 127 0" result="hardAlpha"/>
<feOffset dy="15"/>
<feGaussianBlur stdDeviation="17.5"/>
<feComposite in2="hardAlpha" operator="out"/>
<feColorMatrix type="matrix" values="0 0 0 0 0.886275 0 0 0 0 0.643137 0 0 0 0 0.2 0 0 0 0.2 0"/>
<feBlend mode="normal" in2="BackgroundImageFix" result="effect1_dropShadow_147_203"/>
<feBlend mode="normal" in="SourceGraphic" in2="effect1_dropShadow_147_203" result="shape"/>
</filter>
<filter id="filter1_d_147_203" x="-25" y="18.6289" width="119.992" height="81.8105" filterUnits="userSpaceOnUse" color-interpolation-filters="sRGB">
<feFlood flood-opacity="0" result="BackgroundImageFix"/>
<feColorMatrix in="SourceAlpha" type="matrix" values="0 0 0 0 0 0 0 0 0 0 0 0 0 0 0 0 0 0 127 0" result="hardAlpha"/>
<feOffset dy="15"/>
<feGaussianBlur stdDeviation="17.5"/>
<feComposite in2="hardAlpha" operator="out"/>
<feColorMatrix type="matrix" values="0 0 0 0 0.886275 0 0 0 0 0.643137 0 0 0 0 0.2 0 0 0 0.2 0"/>
<feBlend mode="normal" in2="BackgroundImageFix" result="effect1_dropShadow_147_203"/>
<feBlend mode="normal" in="SourceGraphic" in2="effect1_dropShadow_147_203" result="shape"/>
</filter>
<linearGradient id="paint0_linear_147_203" x1="29.2553" y1="18.0503" x2="36.156" y2="32.5572" gradientUnits="userSpaceOnUse">
<stop stop-color="#FFCB6C"/>
<stop offset="1" stop-color="#E2A433"/>
</linearGradient>
<linearGradient id="paint1_linear_147_203" x1="29.2525" y1="35.8873" x2="40.8135" y2="53.1683" gradientUnits="userSpaceOnUse">
<stop stop-color="#FFCB6C"/>
<stop offset="1" stop-color="#E2A433"/>
</linearGradient>
<clipPath id="clip0_147_203">
<rect width="70" height="70" fill="white"/>
</clipPath>
</defs>
</svg>
