<svg width="70" height="70" viewBox="0 0 70 70" fill="none" xmlns="http://www.w3.org/2000/svg">
<g clip-path="url(#clip0_147_202)">
<g filter="url(#filter0_d_147_202)">
<path fill-rule="evenodd" clip-rule="evenodd" d="M19.1346 23.1154C17.111 23.1154 16.0992 23.1154 15.7997 22.7025C15.6971 22.561 15.6341 22.3979 15.6151 22.2241C15.5596 21.7171 15.8887 21.4188 16.5468 20.822C17.3014 20.1379 18.2379 19.8189 19.1346 19.7019C19.3883 19.6688 20.7307 19.456 22.6753 19.1476L22.6753 19.1476C29.2052 18.1122 42.5266 16 44.2307 16C46.7787 16 48.846 17.9711 48.846 20.375V21.1154C48.846 22.0582 48.846 22.5296 48.5531 22.8225C48.2602 23.1154 47.7888 23.1154 46.846 23.1154H19.1346ZM20.4807 24.6539C16.1058 24.6539 15 27.0577 15 30.1346V48.4038C15 51.7692 16.4423 53.8845 20.4807 53.8845H50.1441C52.7402 53.8845 54.9999 52.1057 54.9999 49.2692V48.1923C54.9999 47.2494 54.9999 46.778 54.707 46.4851C54.4141 46.1923 53.9427 46.1923 52.9999 46.1923H42.8364C40.2595 46.1923 36.5384 43.6442 36.5384 39.173C36.5384 34.7019 40.6249 32.3462 42.8364 32.3462H52.9999C53.9427 32.3462 54.4141 32.3462 54.707 32.0533C54.9999 31.7604 54.9999 31.289 54.9999 30.3462V29.3654C54.9999 27.0962 53.221 24.6539 50.2883 24.6539H20.4807ZM52.9999 43.1146C53.9427 43.1146 54.4141 43.1146 54.707 42.8217C54.9999 42.5288 54.9999 42.0574 54.9999 41.1146V37.4223C54.9999 36.4795 54.9999 36.0081 54.707 35.7152C54.4141 35.4223 53.9427 35.4223 52.9999 35.4223H43.4134C41.6442 35.4223 39.6153 37.0569 39.6153 39.2204C39.6153 41.3838 41.3942 43.1146 43.4134 43.1146H52.9999ZM45.769 39.2683C45.769 40.5428 44.7358 41.576 43.4613 41.576C42.1868 41.576 41.1536 40.5428 41.1536 39.2683C41.1536 37.9938 42.1868 36.9606 43.4613 36.9606C44.7358 36.9606 45.769 37.9938 45.769 39.2683Z" fill="url(#paint0_linear_147_202)"/>
</g>
</g>
<defs>
<filter id="filter0_d_147_202" x="0" y="6" width="70" height="67.8848" filterUnits="userSpaceOnUse" color-interpolation-filters="sRGB">
<feFlood flood-opacity="0" result="BackgroundImageFix"/>
<feColorMatrix in="SourceAlpha" type="matrix" values="0 0 0 0 0 0 0 0 0 0 0 0 0 0 0 0 0 0 127 0" result="hardAlpha"/>
<feOffset dy="5"/>
<feGaussianBlur stdDeviation="7.5"/>
<feComposite in2="hardAlpha" operator="out"/>
<feColorMatrix type="matrix" values="0 0 0 0 0.886275 0 0 0 0 0.643137 0 0 0 0 0.2 0 0 0 0.2 0"/>
<feBlend mode="normal" in2="BackgroundImageFix" result="effect1_dropShadow_147_202"/>
<feBlend mode="normal" in="SourceGraphic" in2="effect1_dropShadow_147_202" result="shape"/>
</filter>
<linearGradient id="paint0_linear_147_202" x1="30.4043" y1="7.20539" x2="56.671" y2="16.9985" gradientUnits="userSpaceOnUse">
<stop stop-color="#FFCB6C"/>
<stop offset="1" stop-color="#E2A433"/>
</linearGradient>
<clipPath id="clip0_147_202">
<rect width="70" height="70" fill="white"/>
</clipPath>
</defs>
</svg>
